<svg xmlns="http://www.w3.org/2000/svg" xmlns:xlink="http://www.w3.org/1999/xlink" width="36" height="36" viewBox="0 0 36 36"><defs><path id="6ocha" d="M864.562 241.58l-8.79-9.588 8.782-9.58.71.708-8.135 8.872 8.142 8.878zM862 249.999c-9.942 0-18-8.058-18-18 0-9.94 8.058-17.998 18-17.998 9.941 0 18 8.057 18 17.999 0 9.941-8.059 18-18 18zm0-.999c9.373 0 17-7.627 17-17 0-9.374-7.627-17-17-17-9.373 0-17 7.626-17 17 0 9.373 7.627 17 17 17 9.373 0 0 0 0 0z"/></defs><g><g transform="translate(-844 -214)"><use xlink:href="#6ocha"/></g></g></svg>