<svg xmlns="http://www.w3.org/2000/svg" xmlns:xlink="http://www.w3.org/1999/xlink" width="24" height="24" viewBox="0 0 24 24"><defs><path id="nwvoa" d="M235.873 31.191l-.073-.078v-.001c-3.835-3.865-5.925-8.718-5.813-13.4l.008-.345.214-.27c.331-.422.658-.794 1-1.136a12.609 12.609 0 0 1 4.386-2.854 1.87 1.87 0 0 1 .674-.119c.557 0 1.811.284 2.132 1.162.564 1.568 1.277 3.612 1.795 5.568.144.55.004 1.876-.764 2.36l-1.829 1.159c.017.014.009.3.247.626a25.882 25.882 0 0 0 2.441 2.86c.918.9 1.877 1.717 2.84 2.418.189.137.4.217.572.217l.634-.883.583-.918c.506-.785 1.775-.807 1.918-.807.148 0 .28.013.4.04 2.41.537 3.844 1 5.682 1.833.817.368 1.334 1.85.968 2.78a12.591 12.591 0 0 1-2.848 4.377c-.356.352-.739.69-1.142 1.004l-.27.211-.69.012c-4.606 0-9.368-2.12-13.065-5.816zm1.39-1.534l.1.1c3.273 3.271 7.482 5.167 11.528 5.183.242-.201.472-.41.688-.624a10.55 10.55 0 0 0 2.382-3.664c-.011-.008-.052-.134-.096-.235-1.6-.713-2.914-1.127-5.078-1.61-.053.008-.16.029-.243.052l-1.04 1.639c-.644 1.046-2.36 1.215-3.593.313a27.505 27.505 0 0 1-3.082-2.626 28.164 28.164 0 0 1-2.65-3.102c-.507-.694-.714-1.518-.568-2.262.112-.574.43-1.048.894-1.336l1.634-1.037c.026-.096.045-.223.041-.286-.454-1.692-1.098-3.56-1.63-5.046a.943.943 0 0 0-.28-.06 10.593 10.593 0 0 0-3.597 2.366c-.21.211-.415.436-.622.684.016 3.994 1.948 8.286 5.212 11.55z"/></defs><g><g transform="translate(-230 -13)"><use xlink:href="#nwvoa"/></g></g></svg>