<svg xmlns="http://www.w3.org/2000/svg" width="24" height="24" viewBox="0 0 24 24">
  <defs>
    
  </defs>
  <path id="phone" class="cls-1" d="M229.986,16.675a20.547,20.547,0,0,0,6.284,13.948l0.121,0.122A20.239,20.239,0,0,0,250.289,37c0.292-.243.569-0.5,0.83-0.754a12.735,12.735,0,0,0,2.871-4.424c-0.013-.01-0.062-0.162-0.115-0.284a29.179,29.179,0,0,0-6.122-1.943,2.536,2.536,0,0,0-.294.062l-1.254,1.979c-0.776,1.263-2.844,1.468-4.331.378a33.142,33.142,0,0,1-3.716-3.172,33.93,33.93,0,0,1-3.195-3.746,3.542,3.542,0,0,1-.685-2.731,2.407,2.407,0,0,1,1.078-1.613l1.97-1.252a1.345,1.345,0,0,0,.05-0.345c-0.548-2.044-1.324-4.3-1.965-6.094a1.146,1.146,0,0,0-.339-0.072,12.754,12.754,0,0,0-4.335,2.857c-0.254.255-.5,0.527-0.751,0.826h0Z" transform="translate(-230 -13)"/>
</svg>
