<svg xmlns="http://www.w3.org/2000/svg" xmlns:xlink="http://www.w3.org/1999/xlink" width="39" height="29" viewBox="0 0 39 29"><defs><path id="teoza" d="M885.23 2744.196h16.873v-13.028H885.23zm20.104-16.183v19.339H882v-19.34zm-10.12 24.388c-.895 0-1.616-.706-1.616-1.578 0-.872.721-1.578 1.615-1.578h8.86c.891 0 1.615.706 1.615 1.578 0 .872-.724 1.578-1.615 1.578zm-6.922-.735c-.743 0-1.346.59-1.346 1.314 0 .724.603 1.314 1.346 1.314.74 0 1.342-.59 1.342-1.314 0-.724-.602-1.314-1.342-1.314-.74 0 0 0 0 0zm4.109 1.314c0 2.217-1.843 4.016-4.11 4.016-2.274 0-4.112-1.799-4.112-4.016 0-2.219 1.838-4.015 4.113-4.015 2.266 0 4.109 1.796 4.109 4.015zm18.29-8.813c2.857.01 5.412 1.305 7.063 3.35v-3.632l-3.382-6.475h-3.68zm5.661-9.912l4.634 8.871v9.278h-4.564c-.297-2.854-2.766-5.082-5.763-5.082a5.88 5.88 0 0 0-3.198.94v-14.007zm-5.693 17.411c-.743 0-1.345.59-1.345 1.314 0 .724.602 1.314 1.345 1.314.74 0 1.343-.59 1.343-1.314 0-.724-.602-1.314-1.343-1.314-.74 0 0 0 0 0zm4.11 1.314c0 2.217-1.84 4.016-4.11 4.016-2.272 0-4.112-1.799-4.112-4.016 0-2.219 1.84-4.015 4.112-4.015 2.27 0 4.11 1.796 4.11 4.015z"/></defs><g><g transform="translate(-882 -2728)"><use xlink:href="#teoza"/></g></g></svg>