<svg xmlns="http://www.w3.org/2000/svg" xmlns:xlink="http://www.w3.org/1999/xlink" width="27" height="23" viewBox="0 0 27 23"><defs><path id="guv3a" d="M1448.931 128.6l-2.264 8.046a1.902 1.902 0 0 1-1.922 1.727h-13.442l-.206.674a3.728 3.728 0 0 1 1.704 2.105h5.647c.476-1.488 1.839-2.574 3.46-2.574 2.015 0 3.652 1.664 3.652 3.71 0 2.047-1.637 3.712-3.653 3.712-1.62 0-2.982-1.086-3.459-2.574h-5.647c-.476 1.488-1.837 2.574-3.46 2.574-2.014 0-3.652-1.665-3.652-3.711a3.683 3.683 0 0 1 3.193-3.664l.42-1.376-3.672-11.19-2.838-.822a1.14 1.14 0 0 1-.77-1.406c.171-.605.796-.947 1.384-.782l3.406.987c.354.103.636.378.754.734l.782 2.381h19.506c.352 0 .682.168.894.452.212.285.28.654.183.997zm-7.024 15.126c.78 0 1.415-.644 1.415-1.437s-.634-1.437-1.415-1.437c-.78 0-1.414.644-1.414 1.437s.634 1.437 1.414 1.437zm-13.98-1.437c0 .793.634 1.437 1.415 1.437.78 0 1.414-.644 1.414-1.437s-.634-1.437-1.414-1.437c-.78 0-1.415.644-1.415 1.437zm1.316-12.864l2.057 6.675h13.191l1.878-6.675z"/></defs><g><g transform="translate(-1422 -123)"><use xlink:href="#guv3a"/></g></g></svg>