<svg xmlns="http://www.w3.org/2000/svg" width="24" height="24" viewBox="0 0 24 24">
  <defs>
    
  </defs>
  <path id="shopping" class="cls-1" d="M299.006,15.258h-2.647a8.359,8.359,0,0,0-16.717,0H277a1.007,1.007,0,0,0-.985,1.166l2.333,13.744a1,1,0,0,0,.985.833h17.339a1,1,0,0,0,.985-0.833l2.338-13.744A1.018,1.018,0,0,0,299.006,15.258ZM288,9a6.362,6.362,0,0,1,6.357,6.255H281.642A6.362,6.362,0,0,1,288,9Zm7.827,20H280.176l-2-11.745H297.82Zm-8.9-8.271v5.283a1.244,1.244,0,0,0,2.168,0V20.73A1.244,1.244,0,0,0,286.92,20.73Zm4.364,0v5.283a1.244,1.244,0,0,0,2.168,0V20.73A1.244,1.244,0,0,0,291.284,20.73Zm-8.727,0v5.283a1.243,1.243,0,0,0,2.167,0V20.73A1.243,1.243,0,0,0,282.557,20.73Z" transform="translate(-276 -7)"/>
</svg>
