<svg xmlns="http://www.w3.org/2000/svg" xmlns:xlink="http://www.w3.org/1999/xlink" width="60" height="60" viewBox="0 0 60 60"><defs><path id="zuida" d="M1525 358c-16.568 0-30-13.433-30-30 0-16.568 13.432-30 30-30 16.567 0 30 13.432 30 30 0 16.567-13.433 30-30 30zm0-1c15.99 0 29-13.01 29-29 0-15.991-13.01-29-29-29-15.991 0-29 13.009-29 29 0 15.99 13.009 29 29 29 15.99 0 0 0 0 0zm-7.124-11.548l15.994-17.445-15.994-17.444.738-.676 16.614 18.12-16.614 18.12z"/></defs><g><g opacity=".7" transform="translate(-1495 -298)"><use xlink:href="#zuida"/></g></g></svg>