<svg xmlns="http://www.w3.org/2000/svg" xmlns:xlink="http://www.w3.org/1999/xlink" width="60" height="60" viewBox="0 0 60 60"><defs><path id="r5kfa" d="M395 298c16.567 0 30 13.432 30 30 0 16.567-13.433 30-30 30-16.568 0-30-13.433-30-30 0-16.568 13.432-30 30-30zm0 1c-15.991 0-29 13.009-29 29 0 15.99 13.009 29 29 29 15.99 0 29-13.01 29-29 0-15.991-13.01-29-29-29-15.991 0 0 0 0 0zm7.124 11.548l-15.995 17.444 15.995 17.444-.739.676-16.613-18.12 16.614-18.12z"/></defs><g><g opacity=".7" transform="translate(-365 -298)"><use xlink:href="#r5kfa"/></g></g></svg>