<svg xmlns="http://www.w3.org/2000/svg" xmlns:xlink="http://www.w3.org/1999/xlink" width="16" height="20" viewBox="0 0 16 20"><defs><path id="8gyca" d="M267 1281.18c-3.56 0-6.22-1.44-6.22-2.73v-.72c.24.17.5.33.8.47 1.46.75 3.39 1.16 5.42 1.16s3.96-.4 5.43-1.16c.28-.14.55-.3.8-.47v.72c0 1.3-2.67 2.73-6.23 2.73zm0-16.36c3.56 0 6.22 1.44 6.22 2.73 0 1.28-2.66 2.72-6.22 2.72-3.56 0-6.22-1.44-6.22-2.72 0-1.3 2.66-2.73 6.22-2.73zm6.22 6.36c0 1.29-2.66 2.73-6.22 2.73-3.56 0-6.22-1.44-6.22-2.73v-.72a7 7 0 0 0 .8.47c1.46.75 3.39 1.16 5.42 1.16s3.96-.41 5.43-1.16c.28-.15.55-.3.8-.47zm0 3.64c0 1.29-2.66 2.73-6.22 2.73-3.56 0-6.22-1.44-6.22-2.73v-.73c.24.17.5.33.8.48 1.46.75 3.39 1.16 5.42 1.16s3.96-.41 5.43-1.16c.28-.15.55-.3.8-.48zm-.8-10.66A12.18 12.18 0 0 0 267 1263c-2.03 0-3.96.41-5.43 1.16-1.66.85-2.57 2.05-2.57 3.39v10.9c0 1.34.91 2.54 2.57 3.39 1.47.75 3.4 1.16 5.43 1.16s3.96-.41 5.43-1.16c1.66-.85 2.57-2.05 2.57-3.39v-10.9c0-1.34-.91-2.54-2.57-3.39z"/></defs><g><g transform="translate(-259 -1263)"><use xlink:href="#8gyca"/></g></g></svg>