<svg xmlns="http://www.w3.org/2000/svg" width="26.25" height="26.25" viewBox="0 0 26.25 26.25">
  <defs>
    
  </defs>
  <path id="&#x424;&#x438;&#x433;&#x443;&#x440;&#x430;_990" data-name="&#x424;&#x438;&#x433;&#x443;&#x440;&#x430; 990" class="cls-1" d="M1443.11,970.3l-4.24,4.241a11.589,11.589,0,0,1-16.33,16.329l-4.24,4.242-1.41-1.414,4.24-4.242a11.589,11.589,0,0,1,16.33-16.328l4.24-4.242ZM1430,991.593a9.589,9.589,0,0,0,7.45-15.627l-13.48,13.482A9.524,9.524,0,0,0,1430,991.593Zm0-19.186a9.589,9.589,0,0,0-7.45,15.627l13.48-13.482A9.524,9.524,0,0,0,1430,972.407Z" transform="translate(-1416.88 -968.875)"/>
</svg>
