<svg xmlns="http://www.w3.org/2000/svg" xmlns:xlink="http://www.w3.org/1999/xlink" width="19" height="20" viewBox="0 0 19 20"><defs><path id="71xfa" d="M602.005 859.541a9.4 9.4 0 0 0-.58-3.264c-.258 2.997-1.863 4.538-3.54 3.82-1.57-.671-.512-3.291-.433-4.541.131-2.12-.007-4.545-3.872-6.562 1.606 3.06.186 4.96-1.304 5.077-1.652.128-3.165-1.414-2.606-3.918-1.81 1.328-1.862 3.562-1.304 5.007.582 1.507-.023 2.758-1.443 2.898-1.586.155-2.468-1.692-1.655-4.636a9.399 9.399 0 0 0-2.255 6.12c0 5.223 4.251 9.457 9.496 9.457s9.496-4.234 9.496-9.458z"/></defs><g><g transform="translate(-583 -849)"><use xlink:href="#71xfa"/></g></g></svg>