<svg xmlns="http://www.w3.org/2000/svg" width="17.07" height="22.031" viewBox="0 0 17.07 22.031">
  <defs>
    
  </defs>
  <path id="&#x424;&#x438;&#x433;&#x443;&#x440;&#x430;_985" data-name="&#x424;&#x438;&#x433;&#x443;&#x440;&#x430; 985" class="cls-1" d="M1407.44,586.868a6.032,6.032,0,0,0-2.92-.08,13.123,13.123,0,0,0-4.23,1.429v3.624a2.07,2.07,0,0,1,1.41,1.961,1.315,1.315,0,0,1-.18.736c0.6,0.1,1.33.283,1.91,0.415,2.16,0.492,3.51.512,4.39-.437a13.6,13.6,0,0,0,.33-3.471A12.091,12.091,0,0,0,1407.44,586.868Zm-12.71-.08a6.032,6.032,0,0,0-2.92.08,12.332,12.332,0,0,0-.7,4.177,14.421,14.421,0,0,0,.47,3.613c0.88,0.949,2.27.692,4.43,0.2,0.58-.132,1.17-0.266,1.77-0.367a2.058,2.058,0,0,1-.22-0.926,1.791,1.791,0,0,1,1.41-1.725v-3.623A13.263,13.263,0,0,0,1394.73,586.788Zm2.91,14.8a5.074,5.074,0,0,1-.88-2.957,3.717,3.717,0,0,1,.58-2.055c-0.35.071-.69,0.15-1.03,0.227a14.3,14.3,0,0,1-3.03.469,4.486,4.486,0,0,1-1.17-.143,12.223,12.223,0,0,0,4.17,5.805,0.966,0.966,0,0,0,1.55-.769A1.01,1.01,0,0,0,1397.64,601.591Zm1.99-20.488a8.487,8.487,0,0,0-1.15.078l1.15,1.473,1.14-1.473A8.339,8.339,0,0,0,1399.63,581.1Zm-2.57.406a8.179,8.179,0,0,0-4.56,3.87,13.356,13.356,0,0,1,6.47,1.354v-2.779Zm8.91,15.624a14.12,14.12,0,0,1-3.02-.469c-0.34-.077-0.69-0.156-1.03-0.227a4.222,4.222,0,0,1,.57,2.2,5.143,5.143,0,0,1-.87,2.957,0.953,0.953,0,0,0-.2.577,0.971,0.971,0,0,0,1.56.769,12.719,12.719,0,0,0,4.16-5.947A4.425,4.425,0,0,1,1405.97,597.133Zm-3.78-15.624-1.9,2.445v2.779a13.312,13.312,0,0,1,6.47-1.354A8.231,8.231,0,0,0,1402.19,581.509Z" transform="translate(-1391.09 -581.094)"/>
</svg>
