<svg xmlns="http://www.w3.org/2000/svg" xmlns:xlink="http://www.w3.org/1999/xlink" width="32" height="28" viewBox="0 0 32 28"><defs><path id="ycvia" d="M1389.57 2756.841a1.404 1.404 0 0 1-.173-.114l-.42-.295c-1.004-.705-3.354-2.354-4.91-3.568-5.976-4.695-9.027-8.079-9.608-10.654-.279-.847-.443-1.872-.455-2.925-.036-2.794 1.01-5.493 2.87-7.403 1.693-1.74 3.917-2.702 6.26-2.711a9.133 9.133 0 0 1 6.78 2.957c1.7-1.947 4.1-3.086 6.712-3.122l.172-.001c5.004 0 9.13 4.43 9.2 9.876a10.41 10.41 0 0 1-.414 3.056c-.483 2.467-3.53 6.037-9.286 10.795-2.212 1.84-4.012 3.21-5.35 4.066a1.345 1.345 0 0 1-1.378.043zm-10.765-23.043c-1.357 1.393-2.12 3.381-2.093 5.454.008.778.128 1.529.356 2.233.27 1.173 1.706 3.758 8.658 9.22 1.37 1.068 3.421 2.516 4.517 3.286 1.151-.803 2.63-1.952 4.336-3.37 6.793-5.617 8.166-8.263 8.38-9.34.24-.834.34-1.59.33-2.366-.05-3.957-2.962-7.177-6.49-7.177l-.136.001c-2.3.031-4.372 1.29-5.544 3.366a1.352 1.352 0 0 1-1.159.69 1.402 1.402 0 0 1-1.176-.66c-1.212-2.024-3.288-3.232-5.555-3.232-1.7.007-3.24.68-4.424 1.895zm21.362 7.612a.684.684 0 0 1-.525-.808l.096-.394a4.19 4.19 0 0 0 .167-1.248c-.025-2.133-1.432-3.804-3.202-3.804a.68.68 0 0 1-.678-.683c0-.377.3-.684.675-.684 2.522 0 4.524 2.264 4.559 5.153a5.532 5.532 0 0 1-.22 1.646l-.072.292a.678.678 0 0 1-.8.53z"/></defs><g><g transform="translate(-1374 -2729)"><use xlink:href="#ycvia"/></g></g></svg>