<svg xmlns="http://www.w3.org/2000/svg" xmlns:xlink="http://www.w3.org/1999/xlink" width="19" height="20" viewBox="0 0 19 20"><defs><path id="ihcga" d="M522.005 584.54a9.398 9.398 0 0 0-.58-3.264c-.258 2.998-1.863 4.539-3.54 3.821-1.57-.672-.512-3.292-.434-4.542.132-2.119-.006-4.544-3.871-6.561 1.606 3.06.186 4.96-1.304 5.076-1.652.129-3.165-1.414-2.607-3.917-1.808 1.327-1.861 3.561-1.303 5.007.581 1.506-.023 2.758-1.443 2.897-1.586.156-2.468-1.692-1.655-4.636a9.398 9.398 0 0 0-2.256 6.12c0 5.224 4.252 9.458 9.497 9.458 5.244 0 9.496-4.234 9.496-9.458z"/></defs><g><g transform="translate(-503 -574)"><use fill="#fc0000" xlink:href="#ihcga"/></g></g></svg>