<svg xmlns="http://www.w3.org/2000/svg" width="39" height="24" viewBox="0 0 39 24">
  <defs>
    
  </defs>
  <path id="&#x424;&#x438;&#x433;&#x443;&#x440;&#x430;_992" data-name="&#x424;&#x438;&#x433;&#x443;&#x440;&#x430; 992" class="cls-1" d="M1514,1007h-31a4,4,0,0,1-4-4V987a4,4,0,0,1,4-4h31a4,4,0,0,1,4,4v16A4,4,0,0,1,1514,1007Zm2-20a2,2,0,0,0-2-2h-31a2,2,0,0,0-2,2v16a2.006,2.006,0,0,0,2,2h31a2.006,2.006,0,0,0,2-2V987Zm-7.94,3.36h1.82v8.76h-1.82v-8.76Zm-3.54,8.063a2.494,2.494,0,0,1-1.95.817,2.355,2.355,0,0,1-1.57-.528,1.807,1.807,0,0,1-.63-1.464,1.777,1.777,0,0,1,.7-1.536,3.132,3.132,0,0,1,1.89-.516,4.766,4.766,0,0,1,1.57.264v-0.108a1.139,1.139,0,0,0-1.38-1.177,5.214,5.214,0,0,0-1.78.349l-0.45-1.393a6.131,6.131,0,0,1,2.5-.516,2.959,2.959,0,0,1,2.17.721,2.8,2.8,0,0,1,.69,2.052v3.732h-1.76v-0.7Zm0.04-1.895a2.766,2.766,0,0,0-1.17-.24,1.59,1.59,0,0,0-.93.234,0.778,0.778,0,0,0-.33.678,0.669,0.669,0,0,0,.28.57,1.141,1.141,0,0,0,.72.21,1.592,1.592,0,0,0,1.03-.319,1.006,1.006,0,0,0,.4-0.809v-0.324Zm-7.66,1.163a2.142,2.142,0,0,0,1.47-.683l1.07,1.08a3.915,3.915,0,0,1-1.13.876,3.324,3.324,0,0,1-1.5.3,3.232,3.232,0,0,1-2.39-.971,3.427,3.427,0,0,1,.01-4.747,3.232,3.232,0,0,1,2.41-.978,3.267,3.267,0,0,1,2.55,1.129l-1.06,1.08a2.135,2.135,0,0,0-1.5-.636,1.418,1.418,0,0,0-1.12.516,1.893,1.893,0,0,0-.44,1.26,1.842,1.842,0,0,0,.45,1.265A1.49,1.49,0,0,0,1496.9,997.691Zm-6.21,1.429-1.67-2.628-0.64.672v1.956h-1.83v-8.76h1.83v4.668l2.14-2.34h2.18l-2.45,2.531,2.53,3.9h-2.09Z" transform="translate(-1479 -983)"/>
</svg>
