<svg xmlns="http://www.w3.org/2000/svg" xmlns:xlink="http://www.w3.org/1999/xlink" width="34" height="35" viewBox="0 0 34 35"><defs><path id="abxja" d="M350.054 2758.34l-5.092-16.934a1.406 1.406 0 0 1 .974-1.752l8.664-2.505a1.46 1.46 0 0 1 1.098.115c.259.138.467.35.598.605 1.7-1.64 3.641-3.844 4.457-5.24.6-2.053.324-4.517.313-4.624a2.117 2.117 0 0 1 .549-1.688c.982-1.08 2.89-1.111 3.104-1.111.746 0 1.48.344 2.072.97 1.2 1.275 1.76 3.581 1.531 6.327-.028.344-.084.714-.14 1.1-.034.22-.068.445-.099.674-.02.277-.036.557-.048.827.679.252 2.497.558 5.537.558l.597-.005c2.663 0 4.8 2.093 4.8 4.667a4.513 4.513 0 0 1-.933 2.752 4.05 4.05 0 0 1-1.28 3.768c-.003.024-.003.046-.006.068-.076 1.365-.861 2.596-2.063 3.299-.031.1-.065.198-.102.297-.529 1.381-1.987 2.135-4.11 2.135-.407 0-.804-.033-1.156-.075-.864-.11-2.185-.218-3.69-.342l-2.258-.19a20.731 20.731 0 0 0-2.816-.076l.927 3.083c.11.36.068.746-.115 1.075a1.44 1.44 0 0 1-.859.678l-8.667 2.5c-.135.038-.27.056-.405.056a1.44 1.44 0 0 1-1.382-1.012zm-1.9-16.305l4.259 14.155 5.897-1.702-.864-2.873a1.403 1.403 0 0 1-.217-.43l-3.105-10.32a1.38 1.38 0 0 1-.056-.487l-.037-.122-5.897 1.705zm15.473 7.189l2.244.189c1.56.13 2.924.242 3.81.355.235.028.51.053.795.053.976 0 1.365-.24 1.41-.3.048-.132.084-.28.101-.438.062-.536.431-.99.952-1.172.537-.187.906-.651.937-1.183.006-.112 0-.199-.02-.308a1.399 1.399 0 0 1 .693-1.466c.397-.23.65-.622.673-1.054.014-.209-.026-.41-.116-.61a1.392 1.392 0 0 1 .352-1.612c.405-.36.628-.842.628-1.354 0-1.016-.842-1.843-1.88-1.845-.003 0-.248.006-.634.006-6.316 0-7.445-1.132-7.814-1.504a2.019 2.019 0 0 1-.614-1.483c.003-.434.026-.94.074-1.508.036-.311.076-.56.112-.8.048-.323.096-.632.118-.917.22-2.64-.49-3.97-.83-4.239-.197.014-.45.057-.647.11.076.999.155 3.356-.507 5.452-.028.09-.065.175-.11.258-1.094 1.973-3.995 5.162-6.128 7.032l2.496 8.3a17.328 17.328 0 0 1 1.63-.071c.685 0 1.45.037 2.275.109z"/></defs><g><g transform="translate(-345 -2725)"><use xlink:href="#abxja"/></g></g></svg>