<svg xmlns="http://www.w3.org/2000/svg" xmlns:xlink="http://www.w3.org/1999/xlink" width="19" height="18" viewBox="0 0 19 18"><defs><path id="tveda" d="M383.8 525.071v10.286a.638.638 0 0 1-.633.643h-2.534a.638.638 0 0 1-.633-.643V525.07c0-.355.284-.643.633-.643h2.534c.35 0 .633.288.633.643zm14.715 2.572c.943 1.068.443 2.77-.915 3.146.086.22.134.46.134.71 0 .889-.595 1.639-1.4 1.862.528 1.356-.535 2.639-1.9 2.639h-4.143c-2.404 0-3.982-.617-5.224-1.037v-9.646c.811-.412 1.43-.678 2.154-1.413 1.076-1.092 1.646-3.775 1.646-5.261 0-.356.283-.643.633-.643h.523a2.656 2.656 0 0 1 2.643 2.627c.01.882-.215 3.039-.634 3.801h4.937c.99 0 1.907.707 2.019 1.705a1.943 1.943 0 0 1-.473 1.51z"/></defs><g><g transform="translate(-380 -518)"><use fill="#0069b4" xlink:href="#tveda"/></g></g></svg>