<svg xmlns="http://www.w3.org/2000/svg" xmlns:xlink="http://www.w3.org/1999/xlink" width="22" height="25" viewBox="0 0 22 25"><defs><path id="s13ha" d="M1440.387 4505.38c-1.004-.83-9.815-8.265-9.815-13.63 0-5.598 4.701-10.153 10.478-10.153s10.478 4.555 10.478 10.154c0 5.364-8.81 12.798-9.815 13.628-.19.159-.427.237-.663.237a1.04 1.04 0 0 1-.663-.237zm-7.77-13.63c0 3.479 5.579 9.066 8.433 11.557 2.855-2.49 8.434-8.078 8.434-11.556 0-4.507-3.783-8.173-8.434-8.173-4.649 0-8.434 3.666-8.434 8.173zm3.323 0c0-2.73 2.293-4.952 5.11-4.952 2.819 0 5.11 2.222 5.11 4.953 0 2.73-2.291 4.952-5.11 4.952-2.817 0-5.11-2.222-5.11-4.952zm2.044 0c0 1.64 1.375 2.972 3.066 2.972 1.691 0 3.066-1.333 3.066-2.971 0-1.64-1.375-2.972-3.066-2.972-1.69 0-3.066 1.333-3.066 2.972z"/></defs><g><g transform="translate(-1430 -4481)"><use xlink:href="#s13ha"/></g></g></svg>