<svg xmlns="http://www.w3.org/2000/svg" xmlns:xlink="http://www.w3.org/1999/xlink" width="19" height="20" viewBox="0 0 19 20"><defs><path id="umh5a" d="M1071.66 6102.019c.332.333.43.83.25 1.264-.18.435-.6.716-1.071.716h-16.312a.527.527 0 0 1-.527-.527v-16.313a1.158 1.158 0 1 1 1.98-.82l.352.352c.208.208.378.216.743.213.407-.002.966-.006 1.494.523.528.527.528 1.084.528 1.49 0 .365.009.535.218.745.21.21.38.218.746.218.407 0 .964 0 1.491.528.528.527.528 1.085.528 1.492 0 .182.002.314.03.428h3.034c.291 0 .527.236.527.527v3.035c.114.027.246.03.426.03h.003c.406 0 .962 0 1.488.527.528.527.528 1.084.528 1.491 0 .366.009.536.218.746.21.21.38.218.746.218.407 0 .964 0 1.492.528s.525 1.087.522 1.495c-.003.364.005.534.213.742zm-7.043-8.644h-4.598l4.598 4.605zm-9.382-6.29a.106.106 0 0 0-.18.074v1.258l3.91 3.91h2.077a3.894 3.894 0 0 1-.017-.427c0-.366-.009-.537-.218-.746-.21-.21-.38-.22-.746-.22-.407 0-.964 0-1.492-.526-.527-.528-.527-1.085-.527-1.49 0-.366-.009-.536-.218-.746-.209-.207-.378-.215-.743-.213-.407.003-.966.006-1.495-.522zm-.18 15.86h13.034l-13.034-13.036zm15.784 0c.094 0 .14-.114.075-.18l-.352-.353c-.53-.528-.525-1.087-.523-1.495.003-.364-.005-.533-.213-.742-.21-.209-.38-.218-.746-.218-.407 0-.964 0-1.492-.527-.527-.528-.527-1.085-.527-1.492 0-.365-.009-.536-.218-.745-.21-.21-.38-.22-.746-.22-.131 0-.275 0-.426-.016v2.078l3.91 3.91z"/></defs><g><g transform="translate(-1053 -6085)"><use xlink:href="#umh5a"/><use fill-opacity="0" stroke="#fff" stroke-linecap="round" stroke-linejoin="round" stroke-miterlimit="50" xlink:href="#umh5a"/></g></g></svg>