<?xml version="1.0" encoding="utf-8"?>
<!-- Generator: Adobe Illustrator 22.1.0, SVG Export Plug-In . SVG Version: 6.00 Build 0)  -->
<svg version="1.1" id="Слой_1" xmlns="http://www.w3.org/2000/svg" xmlns:xlink="http://www.w3.org/1999/xlink" x="0px" y="0px"
	 viewBox="0 0 146.8 120.4" style="enable-background:new 0 0 146.8 120.4;" xml:space="preserve">
<style type="text/css">
	.st0{fill:#231F20;}
	.st1{fill:#FF5F00;}
	.st2{fill:#EB001B;}
	.st3{fill:#F79E1B;}
</style>
<title>mc_vrt_rgb_pos</title>
<g id="Layer_1-2">
	<path class="st0" d="M36.3,105v-6c0.1-2-1.3-3.7-3.3-3.8c-0.2,0-0.3,0-0.5,0c-1.3-0.1-2.6,0.6-3.4,1.7c-0.7-1.1-1.9-1.8-3.2-1.7
		c-1.1-0.1-2.2,0.5-2.8,1.4v-1.2h-2.1v9.6h2.1v-5.3c-0.2-1.2,0.7-2.4,1.9-2.5c0.1,0,0.3,0,0.4,0c1.4,0,2.1,0.9,2.1,2.5v5.3h2.1v-5.3
		c-0.2-1.2,0.7-2.4,1.9-2.5c0.1,0,0.3,0,0.4,0c1.4,0,2.1,0.9,2.1,2.5v5.3L36.3,105z M67.4,95.5H64v-2.9h-2.1v2.9H60v1.9h1.9v4.4
		c0,2.2,0.9,3.5,3.3,3.5c0.9,0,1.8-0.3,2.6-0.7l-0.6-1.8c-0.6,0.3-1.2,0.5-1.8,0.5c-1,0-1.4-0.6-1.4-1.6v-4.4h3.4L67.4,95.5z
		 M85.2,95.2c-1,0-2,0.5-2.5,1.4v-1.2h-2.1v9.6h2.1v-5.4c0-1.6,0.7-2.5,2-2.5c0.4,0,0.9,0.1,1.3,0.2l0.6-2
		C86.1,95.3,85.6,95.2,85.2,95.2L85.2,95.2z M58.3,96.2c-1.2-0.7-2.5-1-3.9-1c-2.4,0-4,1.2-4,3.1c0,1.6,1.2,2.5,3.3,2.8l1,0.1
		c1.1,0.2,1.7,0.5,1.7,1c0,0.7-0.8,1.2-2.2,1.2c-1.1,0-2.3-0.3-3.2-1l-1,1.6c1.2,0.8,2.7,1.3,4.1,1.2c2.8,0,4.4-1.3,4.4-3.1
		s-1.3-2.6-3.3-2.9l-1-0.1c-0.9-0.1-1.6-0.3-1.6-0.9s0.7-1.1,1.8-1.1c1.1,0,2.1,0.3,3,0.8L58.3,96.2z M114,95.2c-1,0-2,0.5-2.5,1.4
		v-1.2h-2.1v9.6h2.1v-5.4c0-1.6,0.7-2.5,2-2.5c0.4,0,0.9,0.1,1.3,0.2l0.6-2C115,95.3,114.5,95.2,114,95.2L114,95.2z M87.2,100.2
		c-0.1,2.7,2,4.9,4.6,5c0.2,0,0.3,0,0.5,0c1.2,0.1,2.5-0.3,3.4-1.1l-1-1.7c-0.7,0.5-1.6,0.8-2.5,0.9c-1.7-0.1-2.9-1.6-2.8-3.3
		c0.1-1.5,1.3-2.7,2.8-2.8c0.9,0,1.8,0.3,2.5,0.9l1-1.7c-1-0.8-2.2-1.2-3.4-1.1c-2.7-0.2-4.9,1.9-5.1,4.5
		C87.2,99.9,87.2,100,87.2,100.2L87.2,100.2z M106.7,100.2v-4.8h-2.1v1.2c-0.7-0.9-1.8-1.4-3-1.4c-2.8,0-5,2.2-5,5s2.2,5,5,5
		c1.2,0,2.3-0.5,3-1.4v1.2h2.1V100.2z M99,100.2c0.1-1.6,1.5-2.8,3.1-2.7s2.8,1.5,2.7,3.1c-0.1,1.5-1.3,2.7-2.9,2.7
		c-1.6,0-2.9-1.2-2.9-2.8C99,100.4,99,100.3,99,100.2z M73.9,95.2c-2.8,0-5,2.3-4.9,5.1s2.3,5,5.1,4.9l0,0c1.4,0.1,2.9-0.4,4-1.3
		l-1-1.5c-0.8,0.6-1.8,1-2.8,1c-1.4,0.1-2.7-0.9-2.9-2.3h7.1c0-0.3,0-0.5,0-0.8C78.5,97.2,76.6,95.2,73.9,95.2L73.9,95.2z
		 M73.9,97.1c1.3,0,2.4,1,2.4,2.3c0,0,0,0,0,0h-5C71.4,98.1,72.5,97,73.9,97.1L73.9,97.1z M126,100.2v-8.6h-2v5
		c-0.7-0.9-1.8-1.4-3-1.4c-2.8,0-5,2.2-5,5s2.2,5,5,5c1.2,0,2.3-0.5,3-1.4v1.2h2V100.2z M129.5,103.6c0.1,0,0.3,0,0.4,0.1
		c0.1,0,0.2,0.1,0.3,0.2c0.1,0.1,0.2,0.2,0.2,0.3c0.1,0.2,0.1,0.5,0,0.7c-0.1,0.1-0.1,0.2-0.2,0.3c-0.1,0.1-0.2,0.2-0.3,0.2
		c-0.1,0.1-0.2,0.1-0.4,0.1c-0.4,0-0.7-0.2-0.9-0.6c-0.1-0.2-0.1-0.5,0-0.7c0.1-0.1,0.1-0.2,0.2-0.3c0.1-0.1,0.2-0.2,0.3-0.2
		C129.2,103.6,129.4,103.6,129.5,103.6L129.5,103.6z M129.5,105.3c0.1,0,0.2,0,0.3-0.1c0.1,0,0.2-0.1,0.2-0.2c0.3-0.3,0.3-0.7,0-1
		c-0.1-0.1-0.1-0.1-0.2-0.2c-0.1,0-0.2-0.1-0.3-0.1c-0.1,0-0.2,0-0.3,0.1c-0.1,0-0.2,0.1-0.2,0.2c-0.3,0.3-0.3,0.7,0,1
		c0.1,0.1,0.2,0.1,0.2,0.2C129.3,105.3,129.4,105.3,129.5,105.3L129.5,105.3z M129.5,104.1c0.1,0,0.2,0,0.3,0.1
		c0.1,0.1,0.1,0.1,0.1,0.2c0,0.1,0,0.1-0.1,0.2c-0.1,0.1-0.1,0.1-0.2,0.1l0.3,0.3h-0.2l-0.3-0.3h-0.1v0.3h-0.2v-0.9L129.5,104.1z
		 M129.3,104.3v0.2h0.2c0,0,0.1,0,0.1,0c0,0,0-0.1,0-0.1c0,0,0-0.1,0-0.1c0,0-0.1,0-0.1,0L129.3,104.3z M118.3,100.2
		c0.1-1.6,1.5-2.8,3.1-2.7s2.8,1.5,2.7,3.1c-0.1,1.5-1.3,2.7-2.9,2.7c-1.6,0-2.9-1.2-2.9-2.8C118.3,100.4,118.3,100.3,118.3,100.2z
		 M48.1,100.2v-4.8H46v1.2c-0.7-0.9-1.8-1.4-3-1.4c-2.8,0-5,2.2-5,5s2.2,5,5,5c1.2,0,2.3-0.5,3-1.4v1.2h2.1L48.1,100.2z M40.3,100.2
		c0.1-1.6,1.5-2.8,3.1-2.7s2.8,1.5,2.7,3.1c-0.1,1.5-1.3,2.7-2.9,2.7c-1.6,0-2.9-1.2-2.9-2.8C40.3,100.4,40.3,100.3,40.3,100.2
		L40.3,100.2z"/>
	<g id="_Group_">
		<rect x="57.6" y="22.6" class="st1" width="31.5" height="56.6"/>
		<path id="_Path_" class="st2" d="M59.6,50.9c0-11,5.1-21.5,13.8-28.3C57.8,10.3,35.1,13,22.8,28.7s-9.6,38.3,6.1,50.5
			c13.1,10.3,31.4,10.3,44.5,0C64.7,72.4,59.6,62,59.6,50.9z"/>
		<path class="st3" d="M131.6,50.9c0,19.9-16.1,36-36,36c-8.1,0-15.9-2.7-22.2-7.7C89,66.9,91.7,44.3,79.5,28.7
			c-1.8-2.3-3.8-4.3-6.1-6.1c15.6-12.3,38.3-9.6,50.6,6.1C128.9,35,131.6,42.8,131.6,50.9L131.6,50.9z"/>
		<path class="st3" d="M128.2,73.2v-1.2h0.5v-0.2h-1.2v0.2h0.5v1.2L128.2,73.2z M130.5,73.2v-1.4h-0.4l-0.4,1l-0.4-1H129v1.4h0.3v-1
			l0.4,0.9h0.3l0.4-0.9v1.1L130.5,73.2z"/>
	</g>
</g>
</svg>
