<svg xmlns="http://www.w3.org/2000/svg" width="21.97" height="22" viewBox="0 0 21.97 22">
  <defs>
    
  </defs>
  <path id="&#x424;&#x438;&#x433;&#x443;&#x440;&#x430;_984" data-name="&#x424;&#x438;&#x433;&#x443;&#x440;&#x430; 984" class="cls-1" d="M1399.87,548.289l-3.25-3.1-2.01,1.768a2.423,2.423,0,1,0-1.33,4.53,0.251,0.251,0,0,1,.23.225,2.424,2.424,0,0,0,2.42,2.283,2.427,2.427,0,0,0,1.6-.6,2.394,2.394,0,0,0,.82-1.744,2.511,2.511,0,0,0-.31-1.263Zm11.17-14.327a6.5,6.5,0,0,0-4.52-1.961,6.607,6.607,0,0,0-4.73,2.023,9.12,9.12,0,0,0-2.43,4.491,9.274,9.274,0,0,1-2.11,4.28l4.95,4.955a9.4,9.4,0,0,1,4.29-2.112,9.13,9.13,0,0,0,4.48-2.427,6.568,6.568,0,0,0,2.03-4.725A6.5,6.5,0,0,0,1411.04,533.962Z" transform="translate(-1391.03 -532)"/>
</svg>
