<?xml version="1.0" encoding="utf-8"?>
<!-- Generator: Adobe Illustrator 22.1.0, SVG Export Plug-In . SVG Version: 6.00 Build 0)  -->
<svg version="1.1" id="Capa_1" xmlns="http://www.w3.org/2000/svg" xmlns:xlink="http://www.w3.org/1999/xlink" x="0px" y="0px" viewBox="0 0 512 512" xml:space="preserve">

<g>
	<g>
		<path class="st0" d="M281.5,124.2H190v263.5h30v-83.5h61.5c48.8,0,88.5-39.7,88.5-88.5v-3.1C370,163.9,330.3,124.2,281.5,124.2z
			 M340,215.8c0,32.2-26.2,58.5-58.5,58.5H220v-120h61.5c32.2,0,58.5,26.2,58.5,58.5V215.8z"/>
	</g>
</g>
<g>
	<g>
		<path class="st0" d="M437,75C388.7,26.6,324.4,0,256,0S123.3,26.6,75,75C26.6,123.3,0,187.6,0,256s26.6,132.7,75,181
			s112.6,75,181,75s132.7-26.6,181-75c48.4-48.4,75-112.6,75-181S485.4,123.3,437,75z M415.8,415.8C373.1,458.5,316.4,482,256,482
			c-60.4,0-117.1-23.5-159.8-66.2S30,316.4,30,256S53.5,138.9,96.2,96.2C138.9,53.5,195.6,30,256,30c60.4,0,117.1,23.5,159.8,66.2
			C458.5,138.9,482,195.6,482,256S458.5,373.1,415.8,415.8z"/>
	</g>
</g>
</svg>
