<svg xmlns="http://www.w3.org/2000/svg" xmlns:xlink="http://www.w3.org/1999/xlink" width="32" height="34" viewBox="0 0 32 34"><defs><path id="wamha" d="M1160.077 2741.565c.667 0 1.207.54 1.207 1.203 0 .665-.54 1.204-1.207 1.204a1.206 1.206 0 0 1-1.21-1.204c0-.664.542-1.203 1.21-1.203zm-13.41-.86c-.445 0-.876-.236-1.104-.65a1.247 1.247 0 0 1 .04-1.276c-2.012 1.337-3.384 3.174-3.841 5.194a1.25 1.25 0 0 1-.446.706c.17.24.27.537.27.826 0 2.19 1.05 4.294 2.955 5.93.277.238.436.584.436.949v3.664c0 .24.195.434.437.434h1.976a.435.435 0 0 0 .437-.434v-.923c0-.388.182-.754.49-.992.31-.236.706-.32 1.088-.22 2.179.564 4.537.61 6.753.123.372-.078.763.01 1.06.247.297.238.47.597.47.977v.788c0 .24.197.434.438.434h1.977a.435.435 0 0 0 .436-.434v-3.21c0-.392.185-.76.498-.997 1.483-1.123 2.545-2.53 3.074-4.069a1.257 1.257 0 0 1 1.19-.849h.734c.24 0 .435-.195.435-.435v-1.967a.434.434 0 0 0-.435-.434h-.734a1.256 1.256 0 0 1-1.19-.85c-.527-1.535-1.59-2.943-3.075-4.07a1.254 1.254 0 0 1-.497-.996v-1.698c-.45-.038-.957.197-1.274.592a1.26 1.26 0 0 1-1.411.395 13.605 13.605 0 0 0-2.08-.562c.26.251.41.612.378 1-.055.69-.635 1.22-1.355 1.148-2.689-.212-5.355.32-7.525 1.503-.192.105-.4.155-.605.155zm-4.088-8.551c0-3.953 3.23-7.167 7.2-7.167 3.971 0 7.202 3.214 7.202 7.167 0 .822-.14 1.613-.397 2.35.463.097.919.214 1.364.349a4.078 4.078 0 0 1 4.442-.4c.411.218.668.642.668 1.105v2.012c1.372 1.149 2.428 2.518 3.1 4.013a2.951 2.951 0 0 1 2.83 2.938v1.967c0 1.58-1.258 2.874-2.83 2.939-.673 1.498-1.729 2.865-3.1 4.012v2.61a2.951 2.951 0 0 1-2.955 2.94h-1.977a2.956 2.956 0 0 1-2.873-2.253c-1.655.214-3.34.186-4.972-.08a2.956 2.956 0 0 1-2.89 2.333h-1.977a2.95 2.95 0 0 1-2.955-2.94v-3.11c-1.97-1.857-3.14-4.167-3.352-6.678a4.06 4.06 0 0 1-2.11-3.545c0-1.061.411-2.065 1.16-2.829a1.262 1.262 0 0 1 1.472-.24c.44.222.704.679.686 1.16.886-1.59 2.219-3.001 3.896-4.115a7.114 7.114 0 0 1-1.632-4.538zm7.2-4.54c-2.514 0-4.56 2.037-4.56 4.54 0 2.502 2.046 4.54 4.56 4.54 2.516 0 4.563-2.038 4.563-4.54 0-2.503-2.047-4.54-4.563-4.54zm0 7.985c-1.908 0-3.461-1.546-3.461-3.445 0-1.9 1.553-3.446 3.461-3.446 1.91 0 3.462 1.546 3.462 3.446 0 1.9-1.553 3.445-3.462 3.445zm0-5.577a2.14 2.14 0 0 0-2.141 2.132 2.14 2.14 0 0 0 2.141 2.132 2.14 2.14 0 0 0 2.142-2.132 2.14 2.14 0 0 0-2.142-2.132z"/></defs><g><g transform="translate(-1137 -2725)"><use xlink:href="#wamha"/></g></g></svg>