<svg xmlns="http://www.w3.org/2000/svg" xmlns:xlink="http://www.w3.org/1999/xlink" width="22" height="26" viewBox="0 0 22 26"><defs><path id="i6pqa" d="M766.417 590.149c0-.755.67-1.369 1.494-1.369.823 0 1.493.614 1.493 1.369 0 .754-.67 1.368-1.493 1.368-.824 0-1.494-.614-1.494-1.368zm-5.08 2.527l5.208-12.263a2.808 2.808 0 0 0-.004.139c0 1.594 1.416 2.892 3.156 2.892 1.74 0 3.155-1.298 3.155-2.892 0-1.595-1.415-2.893-3.155-2.893-.974 0-1.847.408-2.426 1.046l1.95-4.594c.288-.675.985-1.112 1.779-1.112.793 0 1.49.437 1.778 1.112l4.806 11.318a3.373 3.373 0 0 0-1.402-.303c-1.74 0-3.156 1.298-3.156 2.892 0 1.595 1.416 2.892 3.156 2.892 1.34 0 2.487-.77 2.944-1.853l1.537 3.62c-1.184.6-4.441 1.958-9.663 1.958-3.462 0-6.042-.609-7.598-1.119a14.98 14.98 0 0 1-2.065-.84zm3.418-2.527c0 1.594 1.416 2.892 3.156 2.892 1.74 0 3.155-1.298 3.155-2.892 0-1.595-1.415-2.893-3.155-2.893-1.74 0-3.156 1.298-3.156 2.893zm16.516 3.96l.672 1.581c.138.325.018.694-.292.897-.15.098-3.77 2.413-10.651 2.413-6.882 0-10.501-2.315-10.652-2.413-.31-.203-.43-.572-.292-.897l.672-1.581c1.504.73 4.956 2.05 10.272 2.05 5.315 0 8.767-1.32 10.271-2.05zm-13.067-13.557c0-.755.67-1.369 1.493-1.369.823 0 1.493.614 1.493 1.369 0 .754-.67 1.368-1.493 1.368-.824 0-1.493-.614-1.493-1.368zm9.47 7.466c0 .755-.669 1.369-1.492 1.369-.824 0-1.494-.614-1.494-1.369 0-.754.67-1.368 1.494-1.368.823 0 1.493.614 1.493 1.368z"/></defs><g><g transform="translate(-760 -573)"><use xlink:href="#i6pqa"/></g></g></svg>