<svg xmlns="http://www.w3.org/2000/svg" xmlns:xlink="http://www.w3.org/1999/xlink" width="26" height="24" viewBox="0 0 26 24"><defs><path id="r6ypa" d="M1051.748 578.49c-1.822 0-3.471-.435-3.471-.972 0-.537 1.65-.973 3.471-.973 1.821 0 3.47.436 3.47.973 0 .537-1.649.972-3.47.972zm-4.995 10.027c-1.065-.375-2.403-1.05-2.729-2.136l-.018-.06-.006-9.285.013-.052c.225-.883 1.138-1.64 2.64-2.189 1.403-.513 3.223-.796 5.123-.796 1.9 0 3.719.283 5.123.796 1.502.549 2.414 1.306 2.64 2.189l.013.052.002 4.04c0 .37-.275.701-.626.753-1.763.262-3.33.729-4.412 1.315-1.016.55-1.575 1.185-1.575 1.786v3.63c0 .389-.303.715-.676.728-.125.005-.268.009-.382.009-1.881 0-3.703-.277-5.13-.78zm-.552-10.972c0 .199.175.39.323.517.26.222.661.435 1.158.614 1.088.393 2.542.609 4.094.609 1.553 0 3.007-.216 4.094-.609.497-.18.898-.392 1.159-.614.147-.126.323-.318.323-.517 0-.2-.176-.392-.323-.517-.261-.223-.662-.436-1.159-.615-1.087-.392-2.541-.609-4.094-.609-1.552 0-3.006.217-4.094.609-.683.247-1.481.691-1.481 1.132zm21.359 6.048c1.573.629 2.44 1.514 2.44 2.493v8.522c0 .98-.867 1.865-2.44 2.493-1.453.58-3.375.9-5.413.9-2.038 0-3.96-.32-5.413-.9-1.574-.628-2.44-1.513-2.44-2.493v-8.522c0-.98.866-1.864 2.44-2.493 1.452-.58 3.375-.899 5.413-.899 2.038 0 3.96.32 5.413.9zm-.028 2.653c0-.2-.175-.391-.322-.517-.261-.223-.662-.435-1.159-.615-1.087-.392-2.541-.608-4.094-.608-1.552 0-3.006.216-4.094.608-.497.18-.898.392-1.158.615-.148.126-.324.317-.324.517s.176.392.324.517c.26.223.66.435 1.158.615 1.088.392 2.542.608 4.094.608 1.553 0 3.007-.216 4.094-.608.497-.18.898-.392 1.159-.615.147-.125.322-.318.322-.517zm-5.574-.999c1.821 0 3.5.435 3.5.972 0 .538-1.679.972-3.5.972-1.822 0-3.472-.434-3.472-.972 0-.537 1.65-.972 3.472-.972z"/></defs><g><g transform="translate(-1044 -574)"><use xlink:href="#r6ypa"/></g></g></svg>