<svg xmlns="http://www.w3.org/2000/svg" xmlns:xlink="http://www.w3.org/1999/xlink" width="26" height="20" viewBox="0 0 26 20"><defs><path id="6rm3a" d="M529.365 648.68L526.11 652h-14.111l-3.256-3.32H506v-1.557h26v1.557zm-3.85-3.005l3.828-2.954-1.367-1.612-5.742 4.566s-.435-8.396 9.707-6.445c0 0 .051 4.376-2.05 6.445zm-5.058-2.283s-.908-2.22.273-4.162l-1.504-1.477s-2.557 1.748-.273 7.922h-2.05s-2.353-4.163-5.88-4.163v2.149s1.838-.071 3.418 2.014h-6.562s-.697-.715-.274-2.417c0 0-1.578-1.307-1.23-3.626.347-2.319 2.46-2.953 2.46-2.953s-.384-2.058 2.051-3.626c2.436-1.569 4.922-.134 4.922-.134s2.25-1.978 4.922-.135c2.004 1.383 1.778 3.491 1.778 3.491s.88-.18 1.777 1.612c0 0-2.864 1.154-3.828 5.505zm-4.785-6.176s-.694.718-.82 2.014c0 0-.994-.601-2.052-.672l-.273 1.88s1.301.09 2.598 1.745l1.914-.805s-.594-1.52.41-3.088z"/></defs><g><g transform="translate(-506 -632)"><use xlink:href="#6rm3a"/></g></g></svg>