<svg xmlns="http://www.w3.org/2000/svg" xmlns:xlink="http://www.w3.org/1999/xlink" width="20" height="20" viewBox="0 0 20 20"><defs><path id="lwfpa" d="M394.404 592.689a5.86 5.86 0 0 0-3.796 1.572c-1.076.982-2.152.982-3.227 0a5.859 5.859 0 0 0-3.796-1.572c-1.456-.066-2.216-.827-2.282-2.282a5.86 5.86 0 0 0-1.573-3.796c-.982-1.076-.982-2.151 0-3.227a5.86 5.86 0 0 0 1.573-3.796c.066-1.456.826-2.216 2.282-2.282a5.859 5.859 0 0 0 3.796-1.573c1.075-.982 2.151-.982 3.227 0a5.86 5.86 0 0 0 3.796 1.573c1.455.066 2.216.826 2.282 2.282a5.86 5.86 0 0 0 1.572 3.796c.982 1.076.982 2.151 0 3.227a5.86 5.86 0 0 0-1.572 3.796c-.066 1.455-.827 2.216-2.282 2.282zm-8.34-2.83l7.814-9.708h-1.954l-7.813 9.707zm8.204-4.334c-.482-.504-1.109-.756-1.88-.756-.782 0-1.414.252-1.896.756-.483.504-.724 1.12-.724 1.851 0 .74.244 1.361.731 1.865s1.112.756 1.874.756 1.389-.254 1.881-.763a2.555 2.555 0 0 0 .738-1.844c0-.74-.241-1.361-.724-1.865zm-2.51 1.068a.728.728 0 0 1 .615-.298c.25 0 .456.101.615.305.159.203.239.462.239.776 0 .324-.08.587-.24.79a.733.733 0 0 1-.6.305c-.24 0-.443-.103-.607-.311a1.204 1.204 0 0 1-.246-.77c0-.333.074-.598.224-.797zm-4.276-2.108c.492-.504.738-1.12.738-1.851 0-.74-.241-1.361-.723-1.865-.483-.504-1.11-.756-1.881-.756-.782 0-1.414.252-1.896.756s-.723 1.12-.723 1.85c0 .74.24 1.362.723 1.866.482.504 1.11.756 1.881.756.762 0 1.39-.252 1.881-.756zm-2.489-2.642a.728.728 0 0 1 .608-.305c.241 0 .444.104.608.312.164.208.246.465.246.77 0 .324-.08.587-.239.79a.753.753 0 0 1-1.208 0c-.164-.203-.246-.462-.246-.776 0-.324.077-.587.231-.79z"/></defs><g><g transform="translate(-379 -575)"><use fill="#ca0000" xlink:href="#lwfpa"/></g></g></svg>