<svg xmlns="http://www.w3.org/2000/svg" xmlns:xlink="http://www.w3.org/1999/xlink" width="26" height="16" viewBox="0 0 26 16"><defs><path id="6k4za" d="M847.985 637.537c.032.301.094 1.477-.749 2.444-.687.788-1.755 1.188-3.173 1.188a.76.76 0 0 1-.762-.757.76.76 0 0 1 .762-.757c.957 0 1.637-.224 2.022-.665.47-.54.385-1.29.384-1.298a.756.756 0 0 1-.007-.108c0-1.141-.945-2.07-2.106-2.07s-2.106.929-2.106 2.07a.727.727 0 0 1-.007.095c.094.576.227 1.745.068 3.087-.265 2.234-1.229 4.006-2.804 5.175h-10.425a7.247 7.247 0 0 1-1.31-1.138c-.918-1.014-1.573-2.315-1.947-3.868-.502-2.08-1.258-2.457-2.632-3.142a27.185 27.185 0 0 1-.795-.409.758.758 0 0 1-.398-.665c0-.856.545-1.61 1.357-1.877 2.092-.689 4.05-.35 6.35 1.1 1.827 1.151 3.88 1.813 5.936 1.912 1.076.052 2.016.014 2.794-.114.646-.106 1.728-.541 2.352-.814.314-1.663 1.793-2.926 3.567-2.926 1.985 0 3.603 1.582 3.629 3.537zm-8.434 9.918c.043.162.066.333.066.51v1.276a.76.76 0 0 1-.762.757h-9.072a.76.76 0 0 1-.762-.757v-1.277c0-.176.023-.347.065-.51z"/></defs><g><g transform="translate(-822 -634)"><use xlink:href="#6k4za"/></g></g></svg>