<svg xmlns="http://www.w3.org/2000/svg" xmlns:xlink="http://www.w3.org/1999/xlink" width="26" height="25" viewBox="0 0 26 25"><defs><path id="koi8a" d="M59.496 331.656a1.726 1.726 0 0 1 2.12 1.24c.25.939-.294 1.906-1.217 2.16a1.891 1.891 0 0 1-.173.038l-19.387 3.218a.722.722 0 0 1-.827-.606.737.737 0 0 1 .523-.825zm-2.006 5.963c.946-.135 1.82.536 1.953 1.5.132.963-.527 1.853-1.473 1.988a1.837 1.837 0 0 1-.168.016l-20.64.877a.726.726 0 0 1-.75-.702.733.733 0 0 1 .62-.757zM56.568 317c2.7 0 5.432.988 5.432 2.873v4.252c0 1.886-2.733 2.873-5.432 2.873a10.44 10.44 0 0 1-2.19-.228v.757c0 1.886-2.731 2.872-5.43 2.872a10.42 10.42 0 0 1-2.086-.213v.743c0 1.885-2.731 2.872-5.43 2.872-2.7 0-5.432-.987-5.432-2.872v-4.252c0-1.886 2.733-2.873 5.432-2.873.71 0 1.42.072 2.084.207v-.736c0-1.886 2.733-2.872 5.432-2.872.748 0 1.496.078 2.19.228v-.758c0-1.885 2.732-2.872 5.43-2.872zm-15.136 10.79c2.459 0 3.673-.854 3.703-1.114-.031-.259-1.246-1.113-3.703-1.113-2.456 0-3.673.854-3.705 1.114.03.259 1.246 1.113 3.705 1.113zm7.516-3.401c2.459 0 3.673-.855 3.704-1.115-.032-.258-1.248-1.113-3.704-1.113-2.456 0-3.673.855-3.704 1.115.03.258 1.246 1.113 3.704 1.113zm7.62-3.402c2.456 0 3.673-.855 3.705-1.115-.03-.257-1.246-1.113-3.705-1.113-2.46 0-3.673.856-3.703 1.115.031.258 1.246 1.113 3.703 1.113zm0-1.74c.793 0 1.436.28 1.436.626s-.643.626-1.436.626c-.793 0-1.435-.28-1.435-.626s.643-.626 1.435-.626zm-7.62 3.402c.792 0 1.435.28 1.435.626s-.643.626-1.435.626c-.793 0-1.435-.28-1.435-.626s.642-.626 1.435-.626zm-7.516 3.401c.792 0 1.434.28 1.434.627 0 .346-.642.626-1.434.626-.793 0-1.436-.28-1.436-.626s.643-.627 1.436-.627z"/></defs><g><g transform="translate(-36 -317)"><use xlink:href="#koi8a"/></g></g></svg>