<svg xmlns="http://www.w3.org/2000/svg" xmlns:xlink="http://www.w3.org/1999/xlink" width="24" height="26" viewBox="0 0 24 26"><defs><path id="9bita" d="M928.778 584.58c-.727.27-1.69.42-2.71.42-1.021 0-1.984-.15-2.71-.42-.789-.293-1.223-.706-1.223-1.163v-3.977c0-.457.434-.87 1.222-1.164.727-.27 1.69-.419 2.71-.419 1.021 0 1.984.15 2.711.42.788.293 1.222.706 1.222 1.163v3.977c0 .457-.434.87-1.222 1.163zm-.175-5.307a1.98 1.98 0 0 0-.58-.287c-.545-.183-1.273-.283-2.05-.283-.778 0-1.506.1-2.05.283-.25.084-.45.183-.58.287-.075.059-.162.148-.162.242 0 .092.087.182.161.241.131.104.332.203.58.287.545.183 1.273.284 2.05.284.778 0 1.506-.101 2.05-.284a1.97 1.97 0 0 0 .58-.287c.074-.059.162-.149.162-.241 0-.094-.088-.183-.161-.242zm-2.63.683c-.912 0-1.739-.204-1.739-.454s.827-.454 1.739-.454c.912 0 1.752.203 1.752.454 0 .25-.84.454-1.752.454zm-1.517-3.302c-.883.121-1.668.34-2.21.613-.137.07-.257.142-.36.217a2.192 2.192 0 0 0-.37-.212c-1.634-.741-3.22-.889-4.534-.805l-.001-2.05.006-.025c.113-.412.57-.765 1.322-1.021.703-.24 1.614-.371 2.565-.371.952 0 1.863.131 2.566.37.752.257 1.209.61 1.321 1.022l.007.025.001 1.884a.365.365 0 0 1-.313.353zm-.951-2.241a1.97 1.97 0 0 0-.58-.287c-.545-.183-1.273-.284-2.05-.284-.778 0-1.506.1-2.05.284-.343.115-.742.322-.742.528 0 .093.088.183.162.241.13.104.33.203.58.287.544.183 1.272.284 2.05.284.777 0 1.505-.1 2.05-.284a1.97 1.97 0 0 0 .58-.287c.074-.058.162-.148.162-.241s-.089-.183-.162-.241zm-2.644.682c-.913 0-1.738-.203-1.738-.454 0-.25.825-.453 1.738-.453.912 0 1.737.203 1.737.453s-.826.454-1.737.454zm-5.565 1.559c-.883.121-1.667.34-2.209.613-.509.257-1.61.553-1.61.834v1.694a.348.348 0 0 1-.339.34 6.557 6.557 0 0 1-.19.003c-.943 0-1.855-.129-2.57-.364-.533-.175-1.203-.49-1.366-.996l-.01-.029-.002-4.332.006-.025c.113-.412.57-.765 1.322-1.021.703-.24 1.614-.371 2.565-.371.952 0 2.684.131 3.387.37.752.257 1.21.61 1.322 1.022l.007.025v1.884a.365.365 0 0 1-.313.353zm-.95-2.241a1.97 1.97 0 0 0-.58-.287c-.545-.183-2.095-.284-2.872-.284-.778 0-1.505.1-2.05.284-.343.115-.742.322-.742.528 0 .093.088.183.162.241.13.104.33.203.58.287.545.183 1.272.284 2.05.284.777 0 2.327-.1 2.871-.284a1.97 1.97 0 0 0 .58-.287c.074-.058.162-.148.162-.241s-.088-.183-.162-.241zm-3.466.682c-.913 0-1.738-.203-1.738-.454 0-.25.825-.453 1.738-.453.912 0 2.559.203 2.559.453s-1.647.454-2.56.454zm3.318 3.181c.727-.27 1.69-.419 2.71-.419s1.983.15 2.71.42c.788.293 1.222.706 1.222 1.163v3.977c0 .457-.434.87-1.221 1.163-.728.27-1.69.42-2.711.42-1.02 0-1.983-.15-2.71-.42-.788-.293-1.222-.706-1.222-1.163v-3.977c0-.457.434-.87 1.222-1.164zm-.015 1.48c.13.104.331.203.58.287.545.183 1.273.284 2.05.284.778 0 1.506-.101 2.05-.284a1.97 1.97 0 0 0 .58-.287c.074-.059.162-.149.162-.241 0-.094-.088-.183-.162-.242a1.978 1.978 0 0 0-.58-.287c-.544-.183-1.273-.283-2.05-.283-.777 0-1.505.1-2.05.283a1.98 1.98 0 0 0-.58.287c-.074.059-.162.148-.162.242 0 .092.088.182.162.241zm2.63-.708c.912 0 1.753.203 1.753.454 0 .25-.84.454-1.753.454-.912 0-1.738-.204-1.738-.454s.826-.454 1.738-.454zm12.912 19.497c-.76.293-1.764.455-2.829.455-1.064 0-2.069-.162-2.828-.455-.822-.317-1.275-.765-1.275-1.26v-4.308c0-.496.453-.943 1.275-1.26.759-.294 1.764-.455 2.828-.455 1.066 0 2.07.161 2.829.454.822.318 1.275.765 1.275 1.26v4.309c0 .495-.453.943-1.275 1.26zm-.183-5.749a2.012 2.012 0 0 0-.605-.31c-.569-.2-1.328-.308-2.14-.308-.81 0-1.57.109-2.139.307-.26.09-.469.198-.605.311-.077.063-.169.16-.169.261s.092.198.169.262c.136.112.345.22.605.31.569.199 1.328.308 2.14.308.81 0 1.57-.11 2.139-.308.26-.09.469-.198.605-.31.077-.064.169-.161.169-.262 0-.1-.092-.198-.17-.261zm-2.744.74c-.952 0-1.814-.22-1.814-.492s.862-.492 1.814-.492c.951 0 1.828.22 1.828.492s-.877.491-1.828.491zm-1.583-3.578c-.922.132-1.74.368-2.306.665a2.808 2.808 0 0 0-.376.234 2.28 2.28 0 0 0-.386-.229c-1.705-.803-3.359-.963-4.73-.873l-.002-2.22.007-.027c.117-.446.594-.829 1.379-1.106.733-.26 1.684-.402 2.677-.402.992 0 1.943.142 2.676.402.785.277 1.262.66 1.38 1.106l.007.027v2.041a.39.39 0 0 1-.326.382zm-.993-2.428a2.022 2.022 0 0 0-.605-.31c-.568-.199-1.328-.308-2.139-.308-.811 0-1.57.11-2.14.308-.356.125-.773.35-.773.572 0 .1.091.198.168.261.137.113.346.22.606.311.568.198 1.328.308 2.139.308.811 0 1.57-.11 2.14-.308.259-.09.468-.198.604-.31.077-.064.17-.161.17-.262s-.093-.198-.17-.262zm-2.759.74c-.952 0-1.813-.22-1.813-.492 0-.271.861-.491 1.813-.491s1.814.22 1.814.491c0 .272-.862.491-1.814.491zm-5.806 1.688c-.921.132-1.74.368-2.305.665-.531.278-1.68.599-1.68.903v1.835a.37.37 0 0 1-.354.368c-.065.002-.14.004-.2.004-.982 0-1.934-.14-2.68-.394-.556-.19-1.255-.531-1.426-1.08l-.01-.03-.002-4.694.007-.027c.117-.446.594-.829 1.379-1.106.733-.26 1.684-.402 2.677-.402.993 0 2.8.142 3.534.402.785.277 1.261.66 1.379 1.106l.007.027.001 2.041a.39.39 0 0 1-.327.382zm-.992-2.428a2.023 2.023 0 0 0-.606-.31c-.568-.199-2.185-.308-2.996-.308-.811 0-1.57.11-2.139.308-.357.125-.774.35-.774.572 0 .1.091.198.168.261.137.113.346.22.606.311.568.198 1.328.308 2.14.308.81 0 2.427-.11 2.995-.308.26-.09.47-.198.606-.31.076-.064.168-.161.168-.262s-.091-.198-.168-.262zm-3.617.74c-.952 0-1.813-.22-1.813-.492 0-.271.861-.491 1.813-.491s2.671.22 2.671.491c0 .272-1.72.491-2.67.491zm3.462 3.446c.76-.293 1.764-.454 2.829-.454 1.065 0 2.07.161 2.828.454.822.318 1.275.765 1.275 1.26v4.309c0 .495-.453.943-1.275 1.26-.759.293-1.763.455-2.828.455s-2.07-.162-2.828-.455c-.823-.317-1.275-.765-1.275-1.26v-4.308c0-.496.452-.943 1.274-1.26zm-.015 1.603c.136.112.346.22.605.31.569.199 1.329.308 2.14.308.811 0 1.57-.11 2.139-.308.26-.09.469-.198.605-.31.077-.064.169-.161.169-.262 0-.1-.092-.198-.169-.261a2.015 2.015 0 0 0-.605-.31c-.568-.2-1.328-.308-2.14-.308-.81 0-1.57.109-2.139.307-.26.09-.469.198-.605.311-.077.063-.169.16-.169.261s.092.198.17.262zm2.745-.767c.952 0 1.829.22 1.829.492s-.877.491-1.829.491-1.814-.22-1.814-.491c0-.272.862-.492 1.814-.492z"/></defs><g><g transform="translate(-907 -573)"><use xlink:href="#9bita"/></g></g></svg>