<svg xmlns="http://www.w3.org/2000/svg" width="22" height="20" viewBox="0 0 22 20">
  <defs>
    
  </defs>
  <path id="&#x424;&#x438;&#x433;&#x443;&#x440;&#x430;_988" data-name="&#x424;&#x438;&#x433;&#x443;&#x440;&#x430; 988" class="cls-1" d="M1212.81,643.73a3.479,3.479,0,0,1-1,2.419l2.36,3.873a9.707,9.707,0,0,0,4.6-6.292h-5.96Zm-2.14-3.2a3.461,3.461,0,0,1,1.85,1.816h6.45c0.01-.258.03-0.462,0.03-0.7a9.669,9.669,0,0,0-5.87-8.892Zm-0.01,6.368a3.409,3.409,0,0,1-1.2.259l-3.25-.654a1.374,1.374,0,0,0-1.5,1.97l0.38,0.763-0.38.763a1.374,1.374,0,0,0,1.23,2,1.374,1.374,0,0,0,.27-0.027l3.35-.672a9.592,9.592,0,0,0,3.36-.688Zm1.17-14.572a9.612,9.612,0,0,0-2.45-.33h-11.01a1.379,1.379,0,0,0-1.37,1.38,6.891,6.891,0,0,0,6.87,6.9h5.44ZM1201,636a1,1,0,1,1,1-1A1,1,0,0,1,1201,636Z" transform="translate(-1197 -632)"/>
</svg>
