<svg xmlns="http://www.w3.org/2000/svg" width="23.03" height="22" viewBox="0 0 23.03 22">
  <defs>
    
  </defs>
  <path id="&#x424;&#x438;&#x433;&#x443;&#x440;&#x430;_986" data-name="&#x424;&#x438;&#x433;&#x443;&#x440;&#x430; 986" class="cls-1" d="M1215.4,588.264a4.29,4.29,0,0,0-5.95-1.588,21.174,21.174,0,0,0-6.74,7.494,14.693,14.693,0,0,0-1.63,4.146,4.694,4.694,0,0,0-.11,1.2,9.272,9.272,0,0,1,2.66-2.365,19.371,19.371,0,0,1,8.16-2.19l0.04,0h0.02l0.05,0a4.231,4.231,0,0,0,1.95-.6A4.506,4.506,0,0,0,1215.4,588.264Zm-2.03,2.635a1.957,1.957,0,0,1-.9,1.209,1.907,1.907,0,0,1-.98.272,1.923,1.923,0,0,1-1.67-.98,2.008,2.008,0,0,1,.69-2.71,1.915,1.915,0,0,1,2.65.708A2.017,2.017,0,0,1,1213.37,590.9Zm5.46-4.693a8.261,8.261,0,0,0-5.08-3.932,8.11,8.11,0,0,0-6.31.893,25.1,25.1,0,0,0-8.19,9c-2.29,4.127-2.88,7.759-1.61,9.966a3.667,3.667,0,0,0,3.19,1.868,3.59,3.59,0,0,0,1.86-.52,5.49,5.49,0,0,0,1.23-1.2l0.03-.045c1.52-2.309,4.99-2.925,8.18-3.221a8.208,8.208,0,0,0,3.73-1.156,8.434,8.434,0,0,0,3.85-5.2A8.609,8.609,0,0,0,1218.83,586.206Zm-4.3,9.33a5.549,5.549,0,0,1-2.55.792l-0.07,0a18.113,18.113,0,0,0-7.59,2,7.732,7.732,0,0,0-2.48,2.292c-0.01.017-.03,0.033-0.04,0.049a4.206,4.206,0,0,1-.38.415,0.573,0.573,0,0,1-.23.147,1,1,0,0,1-.36.067,1.054,1.054,0,0,1-.92-0.537,4.43,4.43,0,0,1-.16-2.724,16.22,16.22,0,0,1,1.79-4.557,22.537,22.537,0,0,1,7.23-8,5.545,5.545,0,0,1,4.32-.608,5.691,5.691,0,0,1,3.48,2.688A5.912,5.912,0,0,1,1214.53,595.536Z" transform="translate(-1196.97 -582)"/>
</svg>
