<svg xmlns="http://www.w3.org/2000/svg" xmlns:xlink="http://www.w3.org/1999/xlink" width="21" height="20" viewBox="0 0 21 20"><defs><path id="adlsa" d="M496.76 536.698c-2.65-1.68-5.243-1.597-7.777.25-2.534 1.848-3.402 1.266-2.605-1.745.797-3.01-.085-5.422-2.645-7.233-2.56-1.812-2.269-2.808.874-2.99 3.144-.18 5.191-1.754 6.143-4.721.951-2.967 2-3 3.146-.102 1.145 2.9 3.292 4.338 6.44 4.316 3.15-.022 3.506.953 1.07 2.926-2.435 1.973-3.155 4.436-2.16 7.389.993 2.953.165 3.59-2.486 1.91z"/></defs><g><g transform="translate(-482 -518)"><use fill="#f18900" xlink:href="#adlsa"/></g></g></svg>