<svg height="512pt" viewBox="0 0 512 512" width="512pt" xmlns="http://www.w3.org/2000/svg"><path d="m372.179688 239.082031-4.539063-29.648437c60.203125-9.214844 106.742187-58.84375 113.507813-118.433594h-80.8125v-30h111.664062v15c0 80.769531-60.101562 150.878906-139.820312 163.082031zm0 0" fill="#ff9f00"/><path d="m139.820312 239.082031c-79.71875-12.203125-139.820312-82.3125-139.820312-163.082031v-15h111.664062v30h-80.8125c6.765626 59.589844 53.304688 109.21875 113.507813 118.433594zm0 0" fill="#fdbf00"/><path d="m422.800781 0-18.601562 168.398438c-6.601563 58.800781-47.398438 108-103.199219 125.699218v51.902344h-90v-51.902344c-55.800781-17.699218-96.597656-66.898437-103.199219-125.699218l-18.601562-168.398438zm0 0" fill="#ffd400"/><g fill="#fdbf00"><path d="m422.800781 0-18.601562 168.398438c-6.601563 58.800781-47.398438 108-103.199219 125.699218v51.902344h-45v-346zm0 0"/><path d="m181 331h150v75h-150zm0 0"/><path d="m348.699219 108.101562-64.199219-9.300781-28.5-56.101562-28.5 56.101562-64.199219 9.300781 46.5 44.398438-10.800781 62.097656 57-29.398437 57 29.398437-10.800781-62.097656zm0 0"/></g><path d="m302.199219 152.5 10.800781 62.101562-57-29.402343v-142.5l28.5 56.101562 64.199219 9.300781zm0 0" fill="#ff9f00"/><path d="m256 331h75v75h-75zm0 0" fill="#ff9f00"/><path d="m151 391h210v106h-210zm0 0" fill="#b35f49"/><path d="m121 482h270v30h-270zm0 0" fill="#c6715a"/><path d="m256 391h105v106h-105zm0 0" fill="#804231"/><path d="m256 482h135v30h-135zm0 0" fill="#99503d"/></svg>