<svg xmlns="http://www.w3.org/2000/svg" xmlns:xlink="http://www.w3.org/1999/xlink" width="26" height="26" viewBox="0 0 26 26"><defs><path id="u516a" d="M384.818 653.064a1.182 1.182 0 0 1-.91 1.936h-11.817a1.182 1.182 0 0 1-.91-1.936c-3.706-2.293-6.181-6.395-6.181-11.065 0-.652.529-1.181 1.182-1.181h15.978l5.15-6.635a1.182 1.182 0 0 1 1.865 1.451l-4.02 5.184h4.663c.653 0 1.182.529 1.182 1.181 0 4.67-2.475 8.772-6.182 11.065zm-5.983-18.991c.645.644 1.528 1.527 1.528 3.199 0 .652-.528 1.181-1.18 1.182h-.002c-.652 0-1.181-.53-1.181-1.182 0-.665-.257-.949-.836-1.528-.645-.645-1.528-1.528-1.528-3.2 0-1.67.883-2.554 1.528-3.199a1.182 1.182 0 0 1 1.672 1.672c-.58.579-.836.864-.836 1.528s.256.948.835 1.528zm-5.515 0c.645.644 1.528 1.527 1.528 3.199 0 .652-.529 1.181-1.18 1.182h-.002c-.653 0-1.181-.53-1.181-1.182 0-.665-.257-.949-.836-1.528-.645-.645-1.528-1.528-1.528-3.2 0-1.67.883-2.554 1.528-3.199a1.182 1.182 0 0 1 1.671 1.672c-.58.579-.836.864-.835 1.528 0 .664.256.948.835 1.528z"/></defs><g><g transform="translate(-365 -629)"><use xlink:href="#u516a"/></g></g></svg>