<svg xmlns="http://www.w3.org/2000/svg" xmlns:xlink="http://www.w3.org/1999/xlink" width="17" height="18" viewBox="0 0 17 18"><defs><path id="kv7na" d="M398.862 635.477a34.703 34.703 0 0 1-.137 1.136l-.011.082-.029.195c-.037.245-.078.492-.124.742l-.001.008a25.9 25.9 0 0 1-.053.278l-.037.183-.022.106c-.03.15-.064.299-.098.448a19.429 19.429 0 0 1-.38 1.396 15.562 15.562 0 0 1-.472 1.282l-.047.11a17.147 17.147 0 0 1-.167.366 11.092 11.092 0 0 1-.385.733 9.701 9.701 0 0 1-.402.634 7.947 7.947 0 0 1-.37.49c-.103.126-.21.248-.321.365-1.178 1.246-2.702 1.908-4.248 1.986a6.196 6.196 0 0 1-4.044-1.253l-3.684 3.897a1.03 1.03 0 0 1-1.516 0 1.18 1.18 0 0 1 0-1.603l3.683-3.896a7.04 7.04 0 0 1-1.191-3.952c0-1.823.67-3.534 1.885-4.82 3.545-3.75 11.465-3.396 11.799-3.38a.553.553 0 0 1 .51.54c.008.154.074 1.801-.138 3.927z"/></defs><g><g transform="translate(-382 -631)"><use fill="#6ec900" xlink:href="#kv7na"/></g></g></svg>