<svg xmlns="http://www.w3.org/2000/svg" width="26" height="16" viewBox="0 0 26 16">
  <defs>
    
  </defs>
  <path id="&#x424;&#x438;&#x433;&#x443;&#x440;&#x430;_987" data-name="&#x424;&#x438;&#x433;&#x443;&#x440;&#x430; 987" class="cls-1" d="M1204.52,542.547a0.777,0.777,0,0,1,0-1.109,0.81,0.81,0,0,1,1.13,0l7.51,7.431a19.323,19.323,0,0,0-.19-3.858,12.866,12.866,0,0,0-3.39-7.466,13.227,13.227,0,0,0-7.55-3.351,20.057,20.057,0,0,0-4.28-.16,0.8,0.8,0,0,0-.72.706,20.22,20.22,0,0,0,.17,4.235,12.863,12.863,0,0,0,3.39,7.465,13.214,13.214,0,0,0,7.55,3.351,21.414,21.414,0,0,0,2.98.209c0.38,0,.7-0.011.92-0.023Zm18.44-3.075a0.778,0.778,0,0,0-.71-0.706c-0.21-.02-5.23-0.457-8.15,2.429-0.11.112-.22,0.228-0.32,0.346a18.78,18.78,0,0,1,.77,3.247c0.05,0.369.09,0.725,0.12,1.065l2.08-2.049a0.8,0.8,0,0,1,1.12,0,0.777,0.777,0,0,1,0,1.109l-3.1,3.058c0,0.8-.04,1.32-0.05,1.424a2.342,2.342,0,0,1-.12.531,9.693,9.693,0,0,0,5.91-2.4C1223.43,544.637,1222.98,539.681,1222.96,539.472Z" transform="translate(-1197 -534)"/>
</svg>
