<svg xmlns="http://www.w3.org/2000/svg" xmlns:xlink="http://www.w3.org/1999/xlink" width="48" height="15" viewBox="0 0 48 15"><defs><path id="tr63a" d="M418.22 1325.25l-2.44 14.53h3.9l2.44-14.53z"/><path id="tr63b" d="M412.5 1325.27l-3.81 9.9-.41-1.49c-.75-1.8-2.9-4.4-5.4-6.02l3.49 12.11h4.13l6.14-14.5z"/><path id="tr63c" d="M406.8 1326.3c-.23-.88-.89-1.14-1.7-1.17h-6.05l-.05.28c4.7 1.16 7.82 3.96 9.11 7.32z"/><path id="tr63d" d="M430.03 1328.04c1.28-.02 2.2.26 2.92.55l.35.17.53-3.15a9.94 9.94 0 0 0-3.5-.61c-3.85 0-6.57 1.97-6.59 4.8-.02 2.08 1.94 3.25 3.42 3.94 1.52.72 2.03 1.17 2.02 1.8-.01.98-1.21 1.43-2.33 1.43-1.56 0-2.4-.22-3.68-.76l-.5-.24-.55 3.26c.92.4 2.6.75 4.35.77 4.1 0 6.77-1.95 6.8-4.97.01-1.65-1.03-2.9-3.28-3.94-1.37-.68-2.2-1.12-2.2-1.8 0-.6.71-1.25 2.24-1.25z"/><path id="tr63e" d="M439.03 1334.63l1.56-4.06c-.03.04.31-.84.52-1.39l.26 1.26.9 4.2zm4.81-9.36h-3.01c-.94 0-1.63.25-2.05 1.2L433 1339.8h4.1l.82-2.18h5l.47 2.18H447z"/></defs><g><g transform="translate(-399 -1325)"><g><g><g><use xlink:href="#tr63a"/></g></g></g><g><g><g><use xlink:href="#tr63b"/></g></g></g><g><g><g><use xlink:href="#tr63c"/></g></g></g><g><g><g><use xlink:href="#tr63d"/></g></g></g><g><g><g><use xlink:href="#tr63e"/></g></g></g></g></g></svg>