<svg xmlns="http://www.w3.org/2000/svg" width="20" height="30" viewBox="0 0 20 30">
  <defs>
    
  </defs>
  <path id="&#x424;&#x438;&#x433;&#x443;&#x440;&#x430;_991" data-name="&#x424;&#x438;&#x433;&#x443;&#x440;&#x430; 991" class="cls-1" d="M1465,995h-12a4,4,0,0,1-4-4V977a4,4,0,0,1,4-4h4v-2h-3a3,3,0,0,1,0-6h10a3,3,0,0,1,0,6h-3v2h4a4,4,0,0,1,4,4v14A4,4,0,0,1,1465,995Zm-1-26a1,1,0,0,0,0-2h-10a1,1,0,0,0,0,2h10Zm3,8a2.005,2.005,0,0,0-2-2h-12a2.005,2.005,0,0,0-2,2v14a2,2,0,0,0,2,2h12a2,2,0,0,0,2-2V977Z" transform="translate(-1449 -965)"/>
</svg>
