<?xml version="1.0" encoding="UTF-8" standalone="no"?>
<!-- Created with Inkscape (http://www.inkscape.org/) -->

<svg
   xmlns:dc="http://purl.org/dc/elements/1.1/"
   xmlns:cc="http://creativecommons.org/ns#"
   xmlns:rdf="http://www.w3.org/1999/02/22-rdf-syntax-ns#"
   xmlns:svg="http://www.w3.org/2000/svg"
   xmlns="http://www.w3.org/2000/svg"
   xmlns:sodipodi="http://sodipodi.sourceforge.net/DTD/sodipodi-0.dtd"
   xmlns:inkscape="http://www.inkscape.org/namespaces/inkscape"
   width="422.12381mm"
   height="81.521904mm"
   viewBox="0 0 422.12381 81.521904"
   version="1.1"
   id="svg8"
   inkscape:version="0.92.2 (5c3e80d, 2017-08-06)"
   sodipodi:docname="payment.svg">
  <defs
     id="defs2" />
  <sodipodi:namedview
     id="base"
     pagecolor="#ffffff"
     bordercolor="#666666"
     borderopacity="1.0"
     inkscape:pageopacity="0.0"
     inkscape:pageshadow="2"
     inkscape:zoom="0.35"
     inkscape:cx="434.85714"
     inkscape:cy="-77.371422"
     inkscape:document-units="mm"
     inkscape:current-layer="layer1"
     showgrid="false"
     inkscape:window-width="1198"
     inkscape:window-height="687"
     inkscape:window-x="2943"
     inkscape:window-y="403"
     inkscape:window-maximized="0" />
  <metadata
     id="metadata5">
    <rdf:RDF>
      <cc:Work
         rdf:about="">
        <dc:format>image/svg+xml</dc:format>
        <dc:type
           rdf:resource="http://purl.org/dc/dcmitype/StillImage" />
        <dc:title></dc:title>
      </cc:Work>
    </rdf:RDF>
  </metadata>
  <g
     inkscape:label="Layer 1"
     inkscape:groupmode="layer"
     id="layer1"
     transform="translate(9.2226182,-46.840239)">
    <g
       id="g4015">
      <g
         transform="matrix(0.26974694,0,0,0.26958302,-9.2226182,19.666271)"
         id="g3835">
        <path
           inkscape:connector-curvature="0"
           style="fill:#ffb600"
           d="m 504,252 c 0,83.2 -67.2,151.2 -151.2,151.2 -83.2,0 -151.2,-68 -151.2,-151.2 v 0 c 0,-83.2 67.2,-151.2 150.4,-151.2 84.8,0 152,68 152,151.2 z"
           id="path3699" />
        <path
           inkscape:connector-curvature="0"
           style="fill:#f7981d"
           d="m 352.8,100.8 c 83.2,0 151.2,68 151.2,151.2 v 0 c 0,83.2 -67.2,151.2 -151.2,151.2 -83.2,0 -151.2,-68 -151.2,-151.2"
           id="path3701" />
        <path
           inkscape:connector-curvature="0"
           style="fill:#ff8500"
           d="m 352.8,100.8 c 83.2,0 151.2,68 151.2,151.2 v 0 c 0,83.2 -67.2,151.2 -151.2,151.2"
           id="path3703" />
        <path
           inkscape:connector-curvature="0"
           style="fill:#ff5050"
           d="M 149.6,100.8 C 67.2,101.6 0,168.8 0,252 c 0,83.2 67.2,151.2 151.2,151.2 39.2,0 74.4,-15.2 101.6,-39.2 v 0 0 c 5.6,-4.8 10.4,-10.4 15.2,-16 h -31.2 c -4,-4.8 -8,-10.4 -11.2,-15.2 h 53.6 c 3.2,-4.8 6.4,-10.4 8.8,-16 h -71.2 c -2.4,-4.8 -4.8,-10.4 -6.4,-16 h 83.2 c 4.8,-15.2 8,-31.2 8,-48 0,-11.2 -1.6,-21.6 -3.2,-32 h -92.8 c 0.8,-5.6 2.4,-10.4 4,-16 h 83.2 c -1.6,-5.6 -4,-11.2 -6.4,-16 H 216 c 2.4,-5.6 5.6,-10.4 8.8,-16 h 53.6 c -3.2,-5.6 -7.2,-11.2 -12,-16 h -29.6 c 4.8,-5.6 9.6,-10.4 15.2,-15.2 -26.4,-24.8 -62.4,-39.2 -101.6,-39.2 0,-1.6 0,-1.6 -0.8,-1.6 z"
           id="path3705" />
        <path
           inkscape:connector-curvature="0"
           style="fill:#e52836"
           d="m 0,252 c 0,83.2 67.2,151.2 151.2,151.2 39.2,0 74.4,-15.2 101.6,-39.2 v 0 0 c 5.6,-4.8 10.4,-10.4 15.2,-16 h -31.2 c -4,-4.8 -8,-10.4 -11.2,-15.2 h 53.6 c 3.2,-4.8 6.4,-10.4 8.8,-16 h -71.2 c -2.4,-4.8 -4.8,-10.4 -6.4,-16 h 83.2 c 4.8,-15.2 8,-31.2 8,-48 0,-11.2 -1.6,-21.6 -3.2,-32 h -92.8 c 0.8,-5.6 2.4,-10.4 4,-16 h 83.2 c -1.6,-5.6 -4,-11.2 -6.4,-16 H 216 c 2.4,-5.6 5.6,-10.4 8.8,-16 h 53.6 c -3.2,-5.6 -7.2,-11.2 -12,-16 h -29.6 c 4.8,-5.6 9.6,-10.4 15.2,-15.2 -26.4,-24.8 -62.4,-39.2 -101.6,-39.2 h -0.8"
           id="path3707" />
        <path
           inkscape:connector-curvature="0"
           style="fill:#cb2026"
           d="m 151.2,403.2 c 39.2,0 74.4,-15.2 101.6,-39.2 v 0 0 c 5.6,-4.8 10.4,-10.4 15.2,-16 h -31.2 c -4,-4.8 -8,-10.4 -11.2,-15.2 h 53.6 c 3.2,-4.8 6.4,-10.4 8.8,-16 h -71.2 c -2.4,-4.8 -4.8,-10.4 -6.4,-16 h 83.2 c 4.8,-15.2 8,-31.2 8,-48 0,-11.2 -1.6,-21.6 -3.2,-32 h -92.8 c 0.8,-5.6 2.4,-10.4 4,-16 h 83.2 c -1.6,-5.6 -4,-11.2 -6.4,-16 H 216 c 2.4,-5.6 5.6,-10.4 8.8,-16 h 53.6 c -3.2,-5.6 -7.2,-11.2 -12,-16 h -29.6 c 4.8,-5.6 9.6,-10.4 15.2,-15.2 -26.4,-24.8 -62.4,-39.2 -101.6,-39.2 h -0.8"
           id="path3709" />
        <g
           id="g3731">
          <path
             inkscape:connector-curvature="0"
             style="fill:#ffffff"
             d="m 204.8,290.4 2.4,-13.6 c -0.8,0 -2.4,0.8 -4,0.8 -5.6,0 -6.4,-3.2 -5.6,-4.8 l 4.8,-28 h 8.8 l 2.4,-15.2 h -8 l 1.6,-9.6 h -16 c 0,0 -9.6,52.8 -9.6,59.2 0,9.6 5.6,13.6 12.8,13.6 4.8,0 8.8,-1.6 10.4,-2.4 z"
             id="path3711" />
          <path
             inkscape:connector-curvature="0"
             style="fill:#ffffff"
             d="m 210.4,264.8 c 0,22.4 15.2,28 28,28 12,0 16.8,-2.4 16.8,-2.4 l 3.2,-15.2 c 0,0 -8.8,4 -16.8,4 -17.6,0 -14.4,-12.8 -14.4,-12.8 H 260 c 0,0 2.4,-10.4 2.4,-14.4 0,-10.4 -5.6,-23.2 -23.2,-23.2 -16.8,-1.6 -28.8,16 -28.8,36 z m 28,-23.2 c 8.8,0 7.2,10.4 7.2,11.2 H 228 c 0,-0.8 1.6,-11.2 10.4,-11.2 z"
             id="path3713" />
          <path
             inkscape:connector-curvature="0"
             style="fill:#ffffff"
             d="m 340,290.4 3.2,-17.6 c 0,0 -8,4 -13.6,4 -11.2,0 -16,-8.8 -16,-18.4 0,-19.2 9.6,-29.6 20.8,-29.6 8,0 14.4,4.8 14.4,4.8 l 2.4,-16.8 c 0,0 -9.6,-4 -18.4,-4 -18.4,0 -36.8,16 -36.8,46.4 0,20 9.6,33.6 28.8,33.6 6.4,0 15.2,-2.4 15.2,-2.4 z"
             id="path3715" />
          <path
             inkscape:connector-curvature="0"
             style="fill:#ffffff"
             d="m 116.8,227.2 c -11.2,0 -19.2,3.2 -19.2,3.2 L 95.2,244 c 0,0 7.2,-3.2 17.6,-3.2 5.6,0 10.4,0.8 10.4,5.6 0,3.2 -0.8,4 -0.8,4 0,0 -4.8,0 -7.2,0 -13.6,0 -28.8,5.6 -28.8,24 0,14.4 9.6,17.6 15.2,17.6 11.2,0 16,-7.2 16.8,-7.2 l -0.8,6.4 H 132 l 6.4,-44 c 0,-19.2 -16,-20 -21.6,-20 z m 3.2,36 c 0,2.4 -1.6,15.2 -11.2,15.2 -4.8,0 -6.4,-4 -6.4,-6.4 0,-4 2.4,-9.6 14.4,-9.6 2.4,0.8 3.2,0.8 3.2,0.8 z"
             id="path3717" />
          <path
             inkscape:connector-curvature="0"
             style="fill:#ffffff"
             d="m 153.6,292 c 4,0 24,0.8 24,-20.8 0,-20 -19.2,-16 -19.2,-24 0,-4 3.2,-5.6 8.8,-5.6 2.4,0 11.2,0.8 11.2,0.8 l 2.4,-14.4 c 0,0 -5.6,-1.6 -15.2,-1.6 -12,0 -24,4.8 -24,20.8 0,18.4 20,16.8 20,24 0,4.8 -5.6,5.6 -9.6,5.6 -7.2,0 -14.4,-2.4 -14.4,-2.4 l -2.4,14.4 c 0.8,1.6 4.8,3.2 18.4,3.2 z"
             id="path3719" />
          <path
             inkscape:connector-curvature="0"
             style="fill:#ffffff"
             d="m 472.8,214.4 -3.2,21.6 c 0,0 -6.4,-8 -15.2,-8 -14.4,0 -27.2,17.6 -27.2,38.4 0,12.8 6.4,26.4 20,26.4 9.6,0 15.2,-6.4 15.2,-6.4 l -0.8,5.6 h 16 l 12,-76.8 z m -7.2,42.4 c 0,8.8 -4,20 -12.8,20 -5.6,0 -8.8,-4.8 -8.8,-12.8 0,-12.8 5.6,-20.8 12.8,-20.8 5.6,0 8.8,4 8.8,13.6 z"
             id="path3721" />
          <path
             inkscape:connector-curvature="0"
             style="fill:#ffffff"
             d="m 29.6,291.2 9.6,-57.6 1.6,57.6 H 52 L 72.8,233.6 64,291.2 H 80.8 L 93.6,214.4 H 67.2 l -16,47.2 -0.8,-47.2 H 27.2 l -12.8,76.8 z"
             id="path3723" />
          <path
             inkscape:connector-curvature="0"
             style="fill:#ffffff"
             d="m 277.6,291.2 c 4.8,-26.4 5.6,-48 16.8,-44 1.6,-10.4 4,-14.4 5.6,-18.4 0,0 -0.8,0 -3.2,0 -7.2,0 -12.8,9.6 -12.8,9.6 l 1.6,-8.8 H 270.4 L 260,292 h 17.6 z"
             id="path3725" />
          <path
             inkscape:connector-curvature="0"
             style="fill:#ffffff"
             d="m 376.8,227.2 c -11.2,0 -19.2,3.2 -19.2,3.2 l -2.4,13.6 c 0,0 7.2,-3.2 17.6,-3.2 5.6,0 10.4,0.8 10.4,5.6 0,3.2 -0.8,4 -0.8,4 0,0 -4.8,0 -7.2,0 -13.6,0 -28.8,5.6 -28.8,24 0,14.4 9.6,17.6 15.2,17.6 11.2,0 16,-7.2 16.8,-7.2 l -0.8,6.4 H 392 l 6.4,-44 c 0.8,-19.2 -16,-20 -21.6,-20 z m 4,36 c 0,2.4 -1.6,15.2 -11.2,15.2 -4.8,0 -6.4,-4 -6.4,-6.4 0,-4 2.4,-9.6 14.4,-9.6 2.4,0.8 2.4,0.8 3.2,0.8 z"
             id="path3727" />
          <path
             inkscape:connector-curvature="0"
             style="fill:#ffffff"
             d="m 412,291.2 c 4.8,-26.4 5.6,-48 16.8,-44 1.6,-10.4 4,-14.4 5.6,-18.4 0,0 -0.8,0 -3.2,0 -7.2,0 -12.8,9.6 -12.8,9.6 l 1.6,-8.8 H 404.8 L 394.4,292 H 412 Z"
             id="path3729" />
        </g>
        <g
           id="g3753">
          <path
             inkscape:connector-curvature="0"
             style="fill:#dce5e5"
             d="m 180,279.2 c 0,9.6 5.6,13.6 12.8,13.6 5.6,0 10.4,-1.6 12,-2.4 l 2.4,-13.6 c -0.8,0 -2.4,0.8 -4,0.8 -5.6,0 -6.4,-3.2 -5.6,-4.8 l 4.8,-28 h 8.8 l 2.4,-15.2 h -8 l 1.6,-9.6"
             id="path3733" />
          <path
             inkscape:connector-curvature="0"
             style="fill:#dce5e5"
             d="m 218.4,264.8 c 0,22.4 7.2,28 20,28 12,0 16.8,-2.4 16.8,-2.4 l 3.2,-15.2 c 0,0 -8.8,4 -16.8,4 -17.6,0 -14.4,-12.8 -14.4,-12.8 H 260 c 0,0 2.4,-10.4 2.4,-14.4 0,-10.4 -5.6,-23.2 -23.2,-23.2 -16.8,-1.6 -20.8,16 -20.8,36 z m 20,-23.2 c 8.8,0 10.4,10.4 10.4,11.2 H 228 c 0,-0.8 1.6,-11.2 10.4,-11.2 z"
             id="path3735" />
          <path
             inkscape:connector-curvature="0"
             style="fill:#dce5e5"
             d="m 340,290.4 3.2,-17.6 c 0,0 -8,4 -13.6,4 -11.2,0 -16,-8.8 -16,-18.4 0,-19.2 9.6,-29.6 20.8,-29.6 8,0 14.4,4.8 14.4,4.8 l 2.4,-16.8 c 0,0 -9.6,-4 -18.4,-4 -18.4,0 -28.8,16 -28.8,46.4 0,20 1.6,33.6 20.8,33.6 6.4,0 15.2,-2.4 15.2,-2.4 z"
             id="path3737" />
          <path
             inkscape:connector-curvature="0"
             style="fill:#dce5e5"
             d="m 95.2,244.8 c 0,0 7.2,-3.2 17.6,-3.2 5.6,0 10.4,0.8 10.4,5.6 0,3.2 -0.8,4 -0.8,4 0,0 -4.8,0 -7.2,0 -13.6,0 -28.8,5.6 -28.8,24 0,14.4 9.6,17.6 15.2,17.6 11.2,0 16,-7.2 16.8,-7.2 l -0.8,6.4 H 132 l 6.4,-44 c 0,-18.4 -16,-19.2 -22.4,-19.2 m 12,34.4 c 0,2.4 -9.6,15.2 -19.2,15.2 -4.8,0 -6.4,-4 -6.4,-6.4 0,-4 2.4,-9.6 14.4,-9.6 2.4,0.8 11.2,0.8 11.2,0.8 z"
             id="path3739" />
          <path
             inkscape:connector-curvature="0"
             style="fill:#dce5e5"
             d="m 136,290.4 c 0,0 4.8,1.6 18.4,1.6 4,0 24,0.8 24,-20.8 0,-20 -19.2,-16 -19.2,-24 0,-4 3.2,-5.6 8.8,-5.6 2.4,0 11.2,0.8 11.2,0.8 l 2.4,-14.4 c 0,0 -5.6,-1.6 -15.2,-1.6 -12,0 -16,4.8 -16,20.8 0,18.4 12,16.8 12,24 0,4.8 -5.6,5.6 -9.6,5.6"
             id="path3741" />
          <path
             inkscape:connector-curvature="0"
             style="fill:#dce5e5"
             d="m 469.6,236 c 0,0 -6.4,-8 -15.2,-8 -14.4,0 -19.2,17.6 -19.2,38.4 0,12.8 -1.6,26.4 12,26.4 9.6,0 15.2,-6.4 15.2,-6.4 l -0.8,5.6 h 16 l 12,-76.8 m -20.8,41.6 c 0,8.8 -7.2,20 -16,20 -5.6,0 -8.8,-4.8 -8.8,-12.8 0,-12.8 5.6,-20.8 12.8,-20.8 5.6,0 12,4 12,13.6 z"
             id="path3743" />
          <path
             inkscape:connector-curvature="0"
             style="fill:#dce5e5"
             d="m 29.6,291.2 9.6,-57.6 1.6,57.6 H 52 L 72.8,233.6 64,291.2 h 16.8 l 12.8,-76.8 h -20 l -22.4,47.2 -0.8,-47.2 h -8.8 l -27.2,76.8 z"
             id="path3745" />
          <path
             inkscape:connector-curvature="0"
             style="fill:#dce5e5"
             d="m 260.8,291.2 h 16.8 c 4.8,-26.4 5.6,-48 16.8,-44 1.6,-10.4 4,-14.4 5.6,-18.4 0,0 -0.8,0 -3.2,0 -7.2,0 -12.8,9.6 -12.8,9.6 l 1.6,-8.8"
             id="path3747" />
          <path
             inkscape:connector-curvature="0"
             style="fill:#dce5e5"
             d="m 355.2,244.8 c 0,0 7.2,-3.2 17.6,-3.2 5.6,0 10.4,0.8 10.4,5.6 0,3.2 -0.8,4 -0.8,4 0,0 -4.8,0 -7.2,0 -13.6,0 -28.8,5.6 -28.8,24 0,14.4 9.6,17.6 15.2,17.6 11.2,0 16,-7.2 16.8,-7.2 l -0.8,6.4 H 392 l 6.4,-44 c 0,-18.4 -16,-19.2 -22.4,-19.2 m 12,34.4 c 0,2.4 -9.6,15.2 -19.2,15.2 -4.8,0 -6.4,-4 -6.4,-6.4 0,-4 2.4,-9.6 14.4,-9.6 3.2,0.8 11.2,0.8 11.2,0.8 z"
             id="path3749" />
          <path
             inkscape:connector-curvature="0"
             style="fill:#dce5e5"
             d="M 395.2,291.2 H 412 c 4.8,-26.4 5.6,-48 16.8,-44 1.6,-10.4 4,-14.4 5.6,-18.4 0,0 -0.8,0 -3.2,0 -7.2,0 -12.8,9.6 -12.8,9.6 l 1.6,-8.8"
             id="path3751" />
        </g>
        <g
           id="g3755" />
        <g
           id="g3757" />
        <g
           id="g3759" />
        <g
           id="g3761" />
        <g
           id="g3763" />
        <g
           id="g3765" />
        <g
           id="g3767" />
        <g
           id="g3769" />
        <g
           id="g3771" />
        <g
           id="g3773" />
        <g
           id="g3775" />
        <g
           id="g3777" />
        <g
           id="g3779" />
        <g
           id="g3781" />
        <g
           id="g3783" />
      </g>
      <g
         transform="matrix(0.58317685,0,0,0.48633825,118.98006,-36.111403)"
         id="g3937">
        <polygon
           style="fill:#3c58bf"
           points="184.8,324.4 210.4,180.4 250.4,180.4 225.6,324.4 "
           id="polygon3837" />
        <polygon
           style="fill:#293688"
           points="184.8,324.4 217.6,180.4 250.4,180.4 225.6,324.4 "
           id="polygon3839" />
        <path
           inkscape:connector-curvature="0"
           style="fill:#3c58bf"
           d="m 370.4,182 c -8,-3.2 -20.8,-6.4 -36.8,-6.4 -40,0 -68.8,20 -68.8,48.8 0,21.6 20,32.8 36,40 16,7.2 20.8,12 20.8,18.4 0,9.6 -12.8,14.4 -24,14.4 -16,0 -24.8,-2.4 -38.4,-8 l -5.6,-2.4 -5.6,32.8 c 9.6,4 27.2,8 45.6,8 42.4,0 70.4,-20 70.4,-50.4 0,-16.8 -10.4,-29.6 -34.4,-40 -14.4,-7.2 -23.2,-11.2 -23.2,-18.4 0,-6.4 7.2,-12.8 23.2,-12.8 13.6,0 23.2,2.4 30.4,5.6 l 4,1.6 z"
           id="path3841" />
        <path
           inkscape:connector-curvature="0"
           style="fill:#293688"
           d="m 370.4,182 c -8,-3.2 -20.8,-6.4 -36.8,-6.4 -40,0 -61.6,20 -61.6,48.8 0,21.6 12.8,32.8 28.8,40 16,7.2 20.8,12 20.8,18.4 0,9.6 -12.8,14.4 -24,14.4 -16,0 -24.8,-2.4 -38.4,-8 l -5.6,-2.4 -5.6,32.8 c 9.6,4 27.2,8 45.6,8 42.4,0 70.4,-20 70.4,-50.4 0,-16.8 -10.4,-29.6 -34.4,-40 -14.4,-7.2 -23.2,-11.2 -23.2,-18.4 0,-6.4 7.2,-12.8 23.2,-12.8 13.6,0 23.2,2.4 30.4,5.6 l 4,1.6 z"
           id="path3843" />
        <path
           inkscape:connector-curvature="0"
           style="fill:#3c58bf"
           d="m 439.2,180.4 c -9.6,0 -16.8,0.8 -20.8,10.4 l -60,133.6 h 43.2 l 8,-24 h 51.2 l 4.8,24 H 504 l -33.6,-144 z m -18.4,96 c 2.4,-7.2 16,-42.4 16,-42.4 0,0 3.2,-8.8 5.6,-14.4 l 2.4,13.6 c 0,0 8,36 9.6,44 h -33.6 z"
           id="path3845" />
        <path
           inkscape:connector-curvature="0"
           style="fill:#293688"
           d="m 448.8,180.4 c -9.6,0 -16.8,0.8 -20.8,10.4 l -69.6,133.6 h 43.2 l 8,-24 h 51.2 l 4.8,24 H 504 l -33.6,-144 z m -28,96 c 3.2,-8 16,-42.4 16,-42.4 0,0 3.2,-8.8 5.6,-14.4 l 2.4,13.6 c 0,0 8,36 9.6,44 h -33.6 z"
           id="path3847" />
        <path
           inkscape:connector-curvature="0"
           style="fill:#3c58bf"
           d="m 111.2,281.2 -4,-20.8 C 100,236.4 76.8,210 51.2,197.2 l 36,128 h 43.2 l 64.8,-144 H 152 Z"
           id="path3849" />
        <path
           inkscape:connector-curvature="0"
           style="fill:#293688"
           d="m 111.2,281.2 -4,-20.8 C 100,236.4 76.8,210 51.2,197.2 l 36,128 h 43.2 l 64.8,-144 H 160 Z"
           id="path3851" />
        <path
           inkscape:connector-curvature="0"
           style="fill:#ffbc00"
           d="m 0,180.4 7.2,1.6 c 51.2,12 86.4,42.4 100,78.4 l -14.4,-68 c -2.4,-9.6 -9.6,-12 -18.4,-12 z"
           id="path3853" />
        <path
           inkscape:connector-curvature="0"
           style="fill:#f7981d"
           d="m 0,180.4 v 0 c 51.2,12 93.6,43.2 107.2,79.2 L 93.6,202.8 C 91.2,193.2 83.2,187.6 74.4,187.6 Z"
           id="path3855" />
        <path
           inkscape:connector-curvature="0"
           style="fill:#ed7c00"
           d="m 0,180.4 v 0 c 51.2,12 93.6,43.2 107.2,79.2 L 97.6,228.4 C 95.2,218.8 92,209.2 80.8,205.2 Z"
           id="path3857" />
        <g
           id="g3867">
          <path
             inkscape:connector-curvature="0"
             style="fill:#051244"
             d="m 151.2,276.4 -27.2,-27.2 -12.8,30.4 -3.2,-20 c -7.2,-24 -30.4,-50.4 -56,-63.2 l 36,128 h 43.2 z"
             id="path3859" />
          <polygon
             style="fill:#051244"
             points="225.6,324.4 191.2,289.2 184.8,324.4 "
             id="polygon3861" />
          <path
             inkscape:connector-curvature="0"
             style="fill:#051244"
             d="m 317.6,274.8 v 0 c 3.2,3.2 4.8,5.6 4,8.8 0,9.6 -12.8,14.4 -24,14.4 -16,0 -24.8,-2.4 -38.4,-8 l -5.6,-2.4 -5.6,32.8 c 9.6,4 27.2,8 45.6,8 25.6,0 46.4,-7.2 58.4,-20 z"
             id="path3863" />
          <path
             inkscape:connector-curvature="0"
             style="fill:#051244"
             d="m 364,324.4 h 37.6 l 8,-24 h 51.2 l 4.8,24 H 504 l -13.6,-58.4 -48,-46.4 2.4,12.8 c 0,0 8,36 9.6,44 h -33.6 c 3.2,-8 16,-42.4 16,-42.4 0,0 3.2,-8.8 5.6,-14.4"
             id="path3865" />
        </g>
        <g
           id="g3869" />
        <g
           id="g3871" />
        <g
           id="g3873" />
        <g
           id="g3875" />
        <g
           id="g3877" />
        <g
           id="g3879" />
        <g
           id="g3881" />
        <g
           id="g3883" />
        <g
           id="g3885" />
        <g
           id="g3887" />
        <g
           id="g3889" />
        <g
           id="g3891" />
        <g
           id="g3893" />
        <g
           id="g3895" />
        <g
           id="g3897" />
      </g>
    </g>
  </g>
</svg>
