<svg xmlns="http://www.w3.org/2000/svg" xmlns:xlink="http://www.w3.org/1999/xlink" width="26" height="22" viewBox="0 0 26 22"><defs><path id="xr6ta" d="M1207.152 578.276c-.034-.53-.252-1.33-1.204-1.79a.774.774 0 0 1-.362-1.055.827.827 0 0 1 1.09-.35c1.586.767 2.054 2.176 2.101 3.212.931.332 1.598 1.19 1.598 2.205 0 1.301-1.092 2.357-2.438 2.357-1.345 0-2.437-1.056-2.437-2.357 0-1.036.694-1.905 1.652-2.222zm17.029 10.091c.513.569.819 1.403.819 2.346 0 1.762-1.071 3.144-2.438 3.144l-22.634 3.135a.832.832 0 0 1-.648-.184.778.778 0 0 1-.28-.594v-9.43c0-.232.113-.437.282-.581.004-.003-.006-.01-.003-.013l4.932-4.133c.626 1.393 2.06 2.37 3.726 2.37 2.24 0 4.063-1.763 4.063-3.93 0-1.283-.66-2.471-1.715-3.197-.02-.091-.063-.171-.087-.261l1.27-1.064a.835.835 0 0 1 .985-.06l11.224 7.277.002.001c.812.527 1.32 1.603 1.32 2.806 0 .954-.313 1.796-.818 2.368zm-.806 2.346c0-.958-.481-1.571-.813-1.571l-21.937 3.04v3.127l21.824-3.016c.445-.008.926-.621.926-1.58zm0-4.714c0-.763-.312-1.313-.603-1.501a.394.394 0 0 0-.21-.071l-21.937 3.04v3.127l21.809-3.014a.794.794 0 0 1 .128-.01c.332 0 .813-.613.813-1.571z"/></defs><g><g transform="translate(-1199 -575)"><use fill="#00d156" xlink:href="#xr6ta"/></g></g></svg>