<svg xmlns="http://www.w3.org/2000/svg" xmlns:xlink="http://www.w3.org/1999/xlink" width="10" height="30" viewBox="0 0 10 30"><defs><path id="nfg9a" d="M667.358 645.436c-.052-.344-.106-.7-.155-1.05a13.367 13.367 0 0 1 .617-6.406l.243-.696c.91-2.589 1.77-5.035 1.304-7.871a1.385 1.385 0 0 1-.463-1.042c0-.756.592-1.371 1.32-1.371h3.517c.728 0 1.32.615 1.32 1.371 0 .404-.168.78-.462 1.042-.466 2.836.393 5.282 1.303 7.871l.243.696c.729 2.099.931 4.194.617 6.406-.05.35-.103.703-.154 1.047-.214 1.414-.435 2.877-.431 4.317v.21l-.2-.032c-1.336-.217-2.496-.926-3.356-2.053-.969-1.284-2.547-2.114-4.02-2.114-.34 0-.67.043-.982.128l-.186.05zm3.92-15.498c.271 2.972-.627 5.526-1.495 8l-.035.098c-.069.196-.138.392-.206.59a12.05 12.05 0 0 0-.359 1.243h5.598a12.102 12.102 0 0 0-.358-1.243l-.206-.59-.035-.099c-.869-2.473-1.767-5.027-1.495-8zm5.51 23.462c.296.806.28 1.54-.044 2.121-.37.664-1.108 1.106-2.137 1.277-.654.109-1.605.16-2.172.19-.203.011-.702.011-.905 0-.568-.03-1.518-.081-2.173-.19-1.028-.171-1.767-.613-2.136-1.277-.324-.582-.34-1.315-.045-2.12.81-2.209.67-3.409.4-5.457l-.03-.22.214.016c.715.054 1.36.248 1.914.575.65.382 1.108.931 1.552 1.462.141.169.286.343.436.51.95 1.057 2.36 1.715 3.683 1.715.24 0 .477-.021.705-.063l.18-.033.022.19c.092.817.268.571.537 1.304z"/></defs><g><g transform="translate(-667 -627)"><use fill="#fc0000" xlink:href="#nfg9a"/></g></g></svg>