<svg xmlns="http://www.w3.org/2000/svg" xmlns:xlink="http://www.w3.org/1999/xlink" width="33" height="32" viewBox="0 0 33 32"><defs><path id="6awca" d="M588.473 2757.068c-2.572 0-5.155-.498-7.534-1.447l-2.005 1.969c-.281.276-.65.414-1.018.414s-.736-.138-1.017-.414a1.395 1.395 0 0 1 0-2l2.004-1.967c-3-7.24-1.313-15.645 4.344-21.203 3.75-3.684 8.74-5.714 14.049-5.714 2.911 0 5.84.638 8.47 1.847.305.14.55.381.693.68 3.544 7.436 1.962 16.326-3.937 22.121-3.753 3.685-8.74 5.714-14.047 5.714h-.002zm0-2.827h.002c4.537 0 8.804-1.735 12.013-4.885l.063-.063-13.383-.597a.73.73 0 0 1-.17-.028l-4.57 4.49a17.503 17.503 0 0 0 6.045 1.083zm16.24-11.822l-10.57-.472a.727.727 0 0 1-.247-.054l-5.54 5.442 13.042.582a.723.723 0 0 1 .32.09 16.574 16.574 0 0 0 2.996-5.588zm-.353-10.806l-9.129 8.968 9.85.44c.667-3.089.451-6.359-.72-9.408zm-7.064-2.08c-1.2 0-2.382.122-3.53.358l.448 9.69 9.127-8.966a17.527 17.527 0 0 0-6.045-1.082zm-12.014 4.886c-4.736 4.653-6.217 11.639-3.873 17.74l4.572-4.49a.697.697 0 0 1-.028-.167l-.606-13.146a16.88 16.88 0 0 0-.065.063zm7.596 6.474a.694.694 0 0 1-.054-.24l-.48-10.404a16.934 16.934 0 0 0-5.689 2.958.694.694 0 0 1 .092.317l.592 12.81z"/></defs><g><g transform="translate(-576 -2726)"><use fill="#ca0000" xlink:href="#6awca"/></g></g></svg>