<svg width="83" height="83" viewBox="0 0 83 83" fill="none" xmlns="http://www.w3.org/2000/svg">
<path d="M41.0001 0.299805C25.4001 0.299805 16.6001 8.5998 9.70007 21.2998C6.70007 26.9998 3.10007 34.0998 3.10007 41.0998C3.10007 47.8998 1.90007 54.3998 4.90007 60.0998C5.50007 61.0998 6.10007 62.1998 6.70007 63.2998C14.0001 74.4998 26.6001 81.9998 41.0001 81.9998C63.5001 81.9998 81.8001 63.6998 81.8001 41.1998C81.8001 18.5998 63.6001 0.299805 41.0001 0.299805Z" fill="#FEFEFE"/>
<path d="M65.9001 74.0002C65.0001 72.7002 60.2001 68.1002 59.2001 67.6002C56.0001 66.1002 42.1001 70.3002 34.3001 54.5002C27.3001 40.5002 32.9001 23.9002 42.4001 17.8002C56.0001 8.80022 70.4001 16.9002 75.2001 28.0002C77.8001 34.1002 78.5001 42.5002 76.5001 49.5002C73.6001 59.6002 61.3001 65.3002 71.5001 68.7002C75.2001 65.7002 79.8001 56.7002 81.2001 50.4002C86.2001 27.7002 71.8001 4.90022 48.2001 0.900224C29.7001 -2.39978 15.7001 7.00023 8.50007 16.2002C1.40007 25.5002 -2.59993 42.0002 2.20007 54.8002C2.80007 56.5002 3.60007 58.2002 4.60007 59.8002C10.4001 62.0002 15.9001 59.7002 17.3001 53.7002C17.7001 52.3002 17.9001 50.7002 17.9001 49.2002V16.0002C17.9001 15.4002 18.3001 15.0002 18.9001 15.0002H24.8001C25.4001 15.0002 25.8001 15.5002 25.8001 16.0002V49.2002C25.8001 60.3002 20.3001 65.9002 9.80007 67.3002C13.6001 73.9002 25.8001 80.2002 34.8001 81.7002C40.7001 82.6002 46.9001 82.2002 52.5001 80.6002C58.8001 78.7002 61.2001 76.3002 65.9001 74.0002Z" fill="#1B2230"/>
<path d="M65.9001 74.0002C67.7001 72.1002 69.9001 70.6002 71.4001 68.6002C67.3001 66.9002 66.3001 65.2002 69.2001 61.5002C70.9001 59.2002 74.2001 57.4002 76.4001 49.4002C78.4001 42.4002 77.7001 34.0002 75.1001 27.9002C70.3001 16.9002 55.9001 8.80017 42.3001 17.7002C32.8001 23.9002 27.2001 40.5002 34.2001 54.4002C42.1001 70.3002 56.0001 66.1002 59.1001 67.6002C61.5001 71.0002 63.9001 73.4002 65.9001 74.0002Z" fill="#F2D649"/>
<path d="M54.5999 60.5C63.3813 60.5 70.5 51.5457 70.5 40.5C70.5 29.4543 63.3813 20.5 54.5999 20.5C45.8186 20.5 38.7 29.4543 38.7 40.5C38.7 51.5457 45.8186 60.5 54.5999 60.5Z" fill="#1B2230"/>
</svg>
