<svg width="69" height="54" viewBox="0 0 69 54" fill="none" xmlns="http://www.w3.org/2000/svg">
<path fill-rule="evenodd" clip-rule="evenodd" d="M38.186 0H38.892C39.092 0.584 38.392 1.13399 38.068 1.67799C37.0653 3.48123 35.9225 5.20287 34.65 6.827C39.1548 13.4779 44.0753 19.8375 49.382 25.868C54.588 31.834 60.382 37.497 68.005 40.956C67.26 42.666 64.845 43.036 62.818 42.156C59.564 40.74 56.856 37.52 54.333 34.85C46.853 26.939 40.354 16.176 33.942 8.024C26.397 17.805 18.831 30.716 8.957 39.28C6.783 41.168 2.498 44.451 0 40.839C7.633 37.425 13.329 31.711 18.621 25.869C23.861 19.8549 28.7409 13.5362 33.235 6.946C31.935 4.68 29.935 2.483 29.111 0.119995C30.563 0.219995 31.058 1.82 31.703 2.757C32.4764 3.74807 33.1852 4.78788 33.825 5.87C35.526 4.165 36.621 1.843 38.186 0ZM2.946 46.346C4.464 49.984 13.173 51.956 14.968 47.184C15.534 51.127 12.368 52.858 8.604 52.213C7.18611 51.9049 5.89157 51.1829 4.88434 50.1384C3.87711 49.094 3.20251 47.7741 2.946 46.346ZM15.322 46.346C16.982 50.121 25.387 51.907 27.461 47.304C27.873 55.531 15.205 52.326 15.322 46.346ZM27.814 46.586C29.435 50.241 38.169 52.364 39.836 47.304C40.859 55.728 27.708 52.654 27.814 46.586ZM20.39 35.686C22.703 30.952 26.797 27.063 32.999 27.543C39.534 28.043 44.27 33.403 44.786 39.877C45.032 42.9654 44.3345 46.0556 42.786 48.739C43.4291 46.8826 43.8251 44.9497 43.964 42.99C44.002 35.974 39.572 30.646 33.712 29.818C24.359 28.498 18.236 37.649 20.745 47.182C19.2977 44.2098 18.7261 40.887 19.097 37.602C19.897 29.477 26.49 22.61 35.125 23.111C42.632 23.548 47.725 29.144 49.268 35.445C51.095 42.915 48.013 50.287 42.313 53.77C42.249 54.048 41.96 54.048 42.195 53.77C46.429 51.008 49.436 43.992 47.971 37.482C46.625 31.502 41.68 26.158 34.888 25.626C27.481 25.048 22.669 29.845 20.39 35.688V35.686Z" fill="#CA0000"/>
</svg>
