<svg xmlns="http://www.w3.org/2000/svg" xmlns:xlink="http://www.w3.org/1999/xlink" width="21" height="21" viewBox="0 0 21 21"><defs><path id="qu19a" d="M1554.767 89.16a9.243 9.243 0 0 1-5.269-1.625l-4.126 4.053a1.404 1.404 0 0 1-.985.401c-.372 0-.721-.144-.985-.401a1.365 1.365 0 0 1-.414-.981c0-.372.146-.72.414-.983l4.062-3.99a8.967 8.967 0 0 1-1.935-5.552c.002-5.008 4.145-9.082 9.237-9.082 5.092 0 9.234 4.075 9.236 9.083-.002 5.005-4.144 9.077-9.235 9.077zm-.001-15.392c-3.549 0-6.437 2.833-6.439 6.314 0 3.48 2.889 6.31 6.44 6.31 3.549 0 6.435-2.829 6.437-6.309-.002-3.482-2.89-6.315-6.438-6.315z"/></defs><g><g transform="translate(-1543 -71)"><use fill="#ca0000" xlink:href="#qu19a"/></g></g></svg>