<svg xmlns="http://www.w3.org/2000/svg" xmlns:xlink="http://www.w3.org/1999/xlink" width="26" height="20" viewBox="0 0 26 20"><defs><path id="va0ea" d="M534 593.5c0 1.378-1.094 2.5-2.438 2.5h-21.125c-1.344 0-2.437-1.122-2.437-2.5.107-1.6.497-3.112 1.097-4.502a2.227 2.227 0 0 0-.233-.585 3.787 3.787 0 0 1-.36-3.095 3.691 3.691 0 0 1 1.909-2.218.769.769 0 0 1 .151-.087 2.023 2.023 0 0 0 1.225-1.712 3.767 3.767 0 0 1 1.489-2.73 3.566 3.566 0 0 1 2.908-.63.582.582 0 0 1 .078.015 1.96 1.96 0 0 0 1.98-.656c.7-.83 1.701-1.3 2.756-1.3 1.054 0 2.055.47 2.741 1.29.51.593 1.273.843 1.992.666a.49.49 0 0 1 .087-.016 3.563 3.563 0 0 1 2.9.631 3.763 3.763 0 0 1 1.489 2.709c.071.781.54 1.441 1.226 1.735a.745.745 0 0 1 .156.088 3.701 3.701 0 0 1 1.905 2.215 3.802 3.802 0 0 1-.346 3.08 1.076 1.076 0 0 1-.109.147c-.03.076-.086.256-.13.45a13.5 13.5 0 0 1 1.087 4.448c.002.018.002.037.002.057zm-13.24-6.077a.85.85 0 0 0 0-1.178.799.799 0 0 0-1.148 0l-4.875 5a.849.849 0 0 0 0 1.178.805.805 0 0 0 1.15 0zm6.5-1.178a.798.798 0 0 0-1.148 0l-4.875 5a.849.849 0 0 0 0 1.178.805.805 0 0 0 1.15 0l4.875-5a.85.85 0 0 0-.001-1.178zm4.692-.412a2.044 2.044 0 0 0-1.14-1.265.798.798 0 0 1-.155-.088c-1.157-.56-1.942-1.709-2.065-3.035a2.084 2.084 0 0 0-.826-1.525 1.978 1.978 0 0 0-1.643-.344.638.638 0 0 1-.078.015c-1.288.292-2.63-.163-3.511-1.193a2 2 0 0 0-1.534-.731c-.582 0-1.134.258-1.513.711-.902 1.052-2.244 1.508-3.54 1.213a.822.822 0 0 1-.073-.013 1.972 1.972 0 0 0-1.64.343c-.475.354-.776.9-.826 1.499a3.676 3.676 0 0 1-2.07 3.063.798.798 0 0 1-.148.085 2.05 2.05 0 0 0-1.143 1.267c-.136.433-.127.896.018 1.318C512.4 583.441 516.448 581 521 581c4.561 0 8.617 2.453 10.949 6.161.125-.375.15-.865.003-1.328z"/></defs><g><g transform="translate(-508 -576)"><use fill="#c90094" xlink:href="#va0ea"/></g></g></svg>