<svg xmlns="http://www.w3.org/2000/svg" xmlns:xlink="http://www.w3.org/1999/xlink" width="26" height="16" viewBox="0 0 26 16"><defs><path id="disba" d="M388.98 590.486c.123.069.26.112.395.159v.155c0 1.764-1.458 3.2-3.25 3.2h-16.25c-1.793 0-3.25-1.436-3.25-3.2v-3.282c.263.053.534.082.812.082h10.512c3.861 0 7.674.996 11.031 2.886zM371.672 586c.445-3.823 1.77-6.242 2.81-7.597l.308-.403h3.626c-1.083 1.625-2.27 4.166-2.686 7.894l-.012.106zm-4.235 0c-1.344 0-2.437-1.077-2.437-2.4 0-3.088 2.551-5.6 5.687-5.6h2.041c-1.082 1.625-2.27 4.166-2.686 7.894l-.011.106zM391 588.4a.799.799 0 0 1-.405.692.825.825 0 0 1-.812.003 24.072 24.072 0 0 0-6.001-2.372c.234-2.696.903-5.035 1.995-6.952l.14-.245c3.042 1.827 5.083 5.115 5.083 8.874zm-13.64-2.4c.445-3.823 1.769-6.242 2.81-7.597l.306-.402c1.4.005 2.734.284 3.956.776l-.038.067c-1.2 2.106-1.935 4.647-2.207 7.54a24.23 24.23 0 0 0-4.238-.384z"/></defs><g><g transform="translate(-365 -578)"><use fill="#ca0000" xlink:href="#disba"/></g></g></svg>