<svg xmlns="http://www.w3.org/2000/svg" xmlns:xlink="http://www.w3.org/1999/xlink" width="17" height="18" viewBox="0 0 17 18"><defs><path id="uwx9a" d="M913.862 855.477l-.018.177c-.034.31-.072.632-.118.959l-.012.082-.029.195c-.037.245-.078.493-.124.743l-.001.008-.053.277-.036.183a23.388 23.388 0 0 1-.121.555 19.444 19.444 0 0 1-.38 1.395 15.62 15.62 0 0 1-.378 1.057 14.272 14.272 0 0 1-.14.334l-.068.151a12.582 12.582 0 0 1-.28.576 9.99 9.99 0 0 1-.4.696 8.463 8.463 0 0 1-.577.801c-.103.127-.21.248-.321.365-1.178 1.246-2.702 1.908-4.248 1.986a6.195 6.195 0 0 1-4.044-1.253l-3.684 3.897a1.03 1.03 0 0 1-1.516 0 1.18 1.18 0 0 1 0-1.603l3.683-3.896a7.04 7.04 0 0 1-1.191-3.951c0-1.823.67-3.535 1.885-4.82 3.545-3.751 11.465-3.397 11.799-3.38a.553.553 0 0 1 .51.54c.008.153.074 1.8-.138 3.926z"/></defs><g><g transform="translate(-897 -851)"><use fill="#6ec900" xlink:href="#uwx9a"/></g></g></svg>