<svg xmlns="http://www.w3.org/2000/svg" xmlns:xlink="http://www.w3.org/1999/xlink" width="26" height="26" viewBox="0 0 26 26"><defs><path id="f7jva" d="M1377.097 576.046v-1.523h-2.336a.761.761 0 1 1 0-1.523h18.333a.761.761 0 1 1 0 1.523h-8.38v1.523h8.38a.761.761 0 1 1 0 1.524h-8.38v2.817a7.12 7.12 0 0 0-.995.815l-.528.522v-7.2h-1.523v8.043c-.532.15-1.04.352-1.524.6v-8.644h-1.523v9.64c-.58.48-1.09 1.039-1.524 1.655v-8.248h-2.336a.761.761 0 1 1 0-1.524zM1374 593.668c0-.421.34-.762.761-.762h24.477c.42 0 .762.34.762.762a2.285 2.285 0 0 1-2.285 2.285h-3.937a3.815 3.815 0 0 1-3.731 3.047h-6.094a3.815 3.815 0 0 1-3.732-3.047h-3.936a2.285 2.285 0 0 1-2.285-2.285zm9.953-3.809c.42 0 .762.341.762.762v.761h-1.524v-.761c0-.42.342-.762.762-.762zm2.285 1.523v-.761a2.288 2.288 0 0 0-2.285-2.285 2.288 2.288 0 0 0-2.285 2.285v.761h-1.524v-.761c0-2.1 1.709-3.809 3.809-3.809s3.808 1.709 3.808 3.809v.761zm3.047 0v-.761a5.338 5.338 0 0 0-5.332-5.332 5.338 5.338 0 0 0-5.332 5.332v.761h-1.524v-.761a6.846 6.846 0 0 1 6.856-6.856 6.846 6.846 0 0 1 6.855 6.856v.761zm7.617 0v-.761a5.338 5.338 0 0 0-6.408-5.223 8.445 8.445 0 0 0-1.192-1.22c.713-.25 1.468-.413 2.268-.413a6.846 6.846 0 0 1 6.856 6.856v.761zm-3.047 0v-.761c0-1.107-.79-2.03-1.836-2.24a8.322 8.322 0 0 0-.605-1.553c.053-.002.103-.016.156-.016 2.1 0 3.809 1.709 3.809 3.809v.761zm-5.332-9.14c-.643 0-1.257.178-1.808.477a8.313 8.313 0 0 0-1.924-.435c.994-.984 2.32-1.566 3.732-1.566 1.457 0 2.8.583 3.776 1.56a8.425 8.425 0 0 0-.729-.036c-.582 0-1.167.092-1.76.228a3.817 3.817 0 0 0-1.287-.228z"/></defs><g><g transform="translate(-1374 -573)"><use fill="#6ec900" xlink:href="#f7jva"/></g></g></svg>